<?xml version="1.0" encoding="utf-8"?>
<svg width="58px" height="60px" viewBox="0 0 58 60" version="1.1" xmlns:xlink="http://www.w3.org/1999/xlink" xmlns="http://www.w3.org/2000/svg">
  <g id="Group-10">
    <g id="Group-10">
      <path d="M14.7727 48.4972C5.87713 48.4972 0.390625 43.7031 1.5625 36.9205L11.3636 36.9205C10.9552 39.0334 12.7663 40.5426 15.3409 40.5426C18.3949 40.5426 20.7386 38.4119 21.0937 36.2102C21.4666 33.9553 19.4069 32.9432 16.4062 32.9432L12.5 32.9432L13.6364 26.125L17.1165 26.125C20.1349 26.125 22.603 24.3139 23.0113 21.8637C23.3309 19.9816 22.2478 18.7387 19.7443 18.7387C17.0099 18.7387 14.3111 20.3012 13.9915 22.5029L4.61647 22.5029C5.71732 15.8445 12.2869 11.1392 20.2415 11.1392C28.5334 11.1392 33.4339 16.2529 32.4574 22.2188C31.7471 26.4979 28.3736 28.6286 23.6505 29.0369L23.6505 29.321C28.7997 29.9247 31.9424 33.4048 31.1789 38.0568C30.2024 44.0227 23.3665 48.4972 14.7727 48.4972Z" id="3" fill="#B50404" fill-rule="evenodd" stroke="none" />
      <path d="M37.2983 25L39.1165 14.0909L42.0497 14.0909L41.7301 15.9943L41.8437 15.9943C42.4687 14.6449 43.5909 13.9347 44.8125 13.9347C45.1179 13.9347 45.4801 13.9702 45.7429 14.0341L45.2883 16.7259C45.0256 16.6335 44.4645 16.5625 44.0312 16.5625C42.7102 16.5625 41.581 17.4858 41.3395 18.8281L40.3239 25L37.2983 25ZM48.9886 25.1776C46.4886 25.1776 44.8835 23.2102 45.4872 19.5597C46.1051 15.8097 48.4347 13.9489 50.8352 13.9489C52.6605 13.9489 53.3565 15.0355 53.6051 15.9233L53.6974 15.9233L54.6065 10.4546L57.6321 10.4546L55.2173 25L52.2344 25L52.5256 23.2528L52.3977 23.2528C51.8224 24.1619 50.7429 25.1776 48.9886 25.1776ZM50.3168 22.7699C51.7727 22.7699 52.8452 21.4915 53.1648 19.5455C53.4844 17.5994 52.8452 16.3565 51.375 16.3565C49.8764 16.3565 48.8892 17.6563 48.5838 19.5455C48.2642 21.4489 48.8253 22.7699 50.3168 22.7699Z" id="rd" fill="#B50404" stroke="none" />
    </g>
  </g>
</svg>