<?xml version="1.0" encoding="utf-8"?>
<svg width="132px" height="43.58496px" viewBox="0 0 132 43.58496" version="1.1" xmlns:xlink="http://www.w3.org/1999/xlink" xmlns="http://www.w3.org/2000/svg">
  <g id="packt-publishing-vector-logo">
    <g id="packt-publishing-vector-logo">
      <path d="M5.55538 35.6064L0 35.6064L0 0.738482L13.3373 0.738482C21.2736 0.738482 25.5283 4.8012 25.5283 11.3417C25.5283 17.8822 21.2736 21.945 13.3373 21.945L5.55538 21.945L5.55538 35.6064L5.55538 35.6064ZM5.55538 16.6099L13.2051 16.6099C17.7243 16.6099 19.7745 14.958 19.7745 11.3417C19.7745 7.72546 17.7464 6.05126 13.2051 6.05126L5.55538 6.05126L5.55538 16.6099L5.55538 16.6099Z" id="Shape" fill="#EC670F" stroke="none" />
      <path d="M44.6817 35.0231L44.6817 32.2362C43.0526 34.2886 40.6529 35.6064 37.2845 35.6064C30.7019 35.6064 25.5283 30.5294 25.5283 23.4649C25.5283 16.4004 30.7019 11.3234 37.2845 11.3234C40.6529 11.3234 43.0306 12.6628 44.6817 14.7152L44.6817 11.9067L49.8113 11.9067L49.8113 35.0015L44.6817 35.0015L44.6817 35.0231ZM30.79 23.4865C30.79 27.5265 33.4759 30.8967 37.901 30.8967C42.1279 30.8967 45.012 27.7209 45.012 23.4865C45.012 19.2737 42.1279 16.0763 37.901 16.0763C33.4759 16.0763 30.79 19.4465 30.79 23.4865L30.79 23.4865Z" id="Shape" fill="#EC670F" stroke="none" />
      <path d="M74.717 14.9747L71.3155 18.4313C69.6147 16.8975 67.8232 16.0333 65.5102 16.0333C61.4283 16.0333 58.3443 19.0794 58.3443 23.4434C58.3443 27.8074 61.4283 30.8536 65.5102 30.8536C67.8459 30.8536 69.9095 29.8166 71.4515 28.4339L74.717 31.9121C72.472 34.3534 69.3199 35.6064 65.6689 35.6064C57.9815 35.6064 52.9245 30.3783 52.9245 23.465C52.9245 16.5518 57.9815 11.3237 65.6689 11.3237C69.3199 11.3021 72.5854 12.5551 74.717 14.9747L74.717 14.9747Z" id="Path" fill="#EC670F" fill-rule="evenodd" stroke="none" />
      <path d="M80.9434 25.2285L80.9434 34.9838L75.9623 34.9838L75.9623 0.245622L80.9434 0.11584L80.9434 20.5348" id="Path" fill="#EC670F" fill-rule="evenodd" stroke="none" />
      <path d="M104.016 34.9838L104.016 16.2003L99 16.2003L99 11.5757L104.016 11.5757L104.016 4.47433L109.527 4.47433L109.527 11.5757L114.566 11.5757L114.566 16.2003L109.527 16.2003L109.527 34.9838L104.016 34.9838Z" id="Path" fill="#EC670F" fill-rule="evenodd" stroke="none" />
      <path d="M82.1887 22.4668L84.0971 20.2957L91.8405 11.3234L98.2677 11.3234L88.4404 22.4447L98.3774 34.9838L91.8843 34.9838L84.0752 24.9924L82.1887 22.4668Z" id="Path" fill="#EC670F" fill-rule="evenodd" stroke="none" />
      <path d="M130.133 24.9924L122.313 34.9838L115.811 34.9838L125.74 22.4447L115.899 11.3234L122.357 11.3234L130.111 20.2957L132 22.4668L130.133 24.9924Z" id="Path" fill="#EC670F" fill-rule="evenodd" stroke="none" />
      <path d="M132 43.0781L0 43.0781L0 39.9649L132 39.9649L132 43.0781Z" id="Path" fill="#EC670F" fill-rule="evenodd" stroke="none" />
    </g>
  </g>
</svg>