<svg width="516" height="53" xmlns="http://www.w3.org/2000/svg"><path d="M40.258 52.204c1.514-.505 1.225-2.379.72-3.532l-.215-.649c-.073-.216-.145-.36-.145-.577l-.36-1.009c-.288-1.081-.649-1.946-.937-2.811l-.216-.793c-.505-.937-.793-1.874-1.01-2.956l-.144-.648a28.516 28.516 0 00-1.081-3.244l-.216-.649a50.668 50.668 0 01-.937-3.1l-.144-.648c-.217-.937-.505-1.874-.793-2.811l-.217-.721c-.504-1.082-.865-2.163-1.225-3.316l-.433-1.298c-.072-.288-.216-.504-.288-.72l-.432-1.298c-.217-.865-.505-1.658-.793-2.523l-.217-.649c-.216-.793-.504-1.441-.72-2.09-.073-.216-.217-.433-.289-.721-.865-2.307-1.586-4.613-2.45-6.92l-.217-.649-1.081-2.811-.433-1.225c-.216-.505-.432-.938-.72-1.298a7.278 7.278 0 00-.938-1.153c-.288-.072-.504-.144-.72-.144-.145-.073-.36-.073-.65-.073h-.648c-1.37-.072-2.595.073-3.965.145-.504.072-.865.072-1.37.072-1.225.288-1.873 1.441-2.234 2.667l-.216.576c-.072.505-.144.865-.36 1.37l-.217.649c-.576 1.802-.937 3.676-1.73 5.406-.072.144-.216.36-.288.649a64.91 64.91 0 00-1.01 3.532l-.215.649c-.36 1.225-.577 2.378-1.082 3.532l-.216.72-.865 2.163-.216.649a20.952 20.952 0 01-.865 2.811l-.216.721-.65 2.018c-.215.217-.215.505-.288.721l-1.297 3.82c-.072.289-.144.505-.144.65-.36 1.153-.577 2.234-1.081 3.315l-.217.721L2.486 42.4l-.216.577c-.289.865-.505 1.73-.721 2.595-.36.793-.649 1.586-.793 2.523l-.432 1.01c0 .143-.073.36-.145.648-.072.577-.144 1.37.217 1.874.216.216.36.288.504.36l.937.217c.217 0 .289.072.505.072 2.234.216 4.325.216 6.415-.144.289-.072.505-.217.65-.289.504-.216.792-.576 1.008-1.009.072-.216.216-.432.289-.72l.216-.721c0-.145.072-.36.144-.65 0-.143.072-.36.144-.648.793-1.73.937-3.604 1.586-5.334l.216-.721h.433c.072 0 .144 0 .216-.072.072.072.144.072.288.072h.721c.216 0 .433.072.649.072 2.09.072 4.18.216 6.271.144h6.704c.505 1.658 1.081 3.028 1.658 4.542l.216.648.505 1.874.216.65c.433.936 1.01 1.585 1.658 1.945.216.073.36.145.577.145.648.072 1.37.144 2.018.144h.649c1.37.072 2.667.36 3.892.144l.577-.144zm-3.893-3.893c.289.865-1.08 1.298-1.37.433l-.287-.937a39.566 39.566 0 01-1.514-4.686l-.721-2.09a23.434 23.434 0 00-.793-3.028h-1.442l-2.018-.072-2.163.072H22.31l-1.874.072-1.586-.144h-2.74l-1.946.144h-2.812l-1.946-.072a25.901 25.901 0 00-.865 3.388l-.72 2.09a39.689 39.689 0 01-1.515 4.686l-.288.937c-.288.865-1.658.433-1.37-.432l.145-.505c.793-1.946 1.37-3.82 1.874-5.91l.577-1.73c.36-1.659.937-3.028 1.513-4.47l.289-.937a44.558 44.558 0 001.946-5.983l.144-.577a52.993 52.993 0 002.018-5.983l.217-.72.865-2.596 2.09-6.415c.072-.216.144-.36.072-.505L18.2 7.007c.217-.504.217-.937.433-1.441l.216-.433c.505-.36 1.153-.216 1.73-.216.288-.144.577-.144.793-.072 1.225.216 1.586 1.658 1.802 2.883l.216.577.217.648c.937 3.172 1.08 3.388 3.171 9.948l.865 2.595.217.72a52.994 52.994 0 002.018 5.984l.144.577a44.558 44.558 0 001.946 5.983l.289.937c.576 1.441 1.153 2.81 1.513 4.469l.577 1.73c.505 2.09 1.081 3.964 1.874 5.91l.144.505zM30.96 35.985c-.216-.505-.432-.865-.504-1.37l-1.875-5.622-2.739-8.434c-.36-1.081-2.667-8.145-2.883-9.299-.577-2.09-.721-2.739-1.226-4.18-.072-.65-.432-.866-1.009-.722h-1.009c-1.37 4.902-3.172 9.443-4.541 14.561l-2.74 8.434-1.874 5.623c-.072.504-.288.865-.504 1.37-.072.216-.144.288-.144.36l1.946.072h2.018l2.667-.144h2.307l2.379.144 2.595-.072h2.595l1.442-.072 2.595.072h.792c-.216-.216-.216-.505-.288-.721zm-12.687-3.82c-.216 0-.432-.073-.72-.073h-1.586c.504-1.658 1.009-2.955 1.513-4.613.073-.288.145-.505.145-.649.144-.648.36-1.297.648-1.802l.217-.649c.288-.865.648-1.73.865-2.667.072-.216.144-.36.144-.504.072-.289.144-.505.144-.721.072-.288.144-.505.144-.577.216-.649.433-1.37.577-2.306.072.432.216.72.288.937l.216.648c.793 1.947 1.226 3.893 2.09 5.84l.145.576c.793 1.73 1.37 3.532 1.946 5.55l.217.793.072.289h-.721c-2.09 0-4.253-.289-6.344-.073zm79.87-30.708c-.145-.072-.361-.072-.577-.072-.65 0-1.298 0-1.947.072h-.648c-1.658.216-2.235 1.802-2.74 3.316l-.216.72c-.576 1.947-1.225 3.82-1.73 5.84 0 .143-.072.36-.144.648-.288 1.225-.649 2.379-1.01 3.532 0 .144-.071.36-.143.649a37.685 37.685 0 01-.865 3.892l-.144.505-.217.649a21.472 21.472 0 01-.648 3.1l-.865 2.594c-.577 2.019-.866 4.037-1.442 6.055-.505-1.37-.577-2.667-.865-4.036 0-.144-.072-.36-.144-.649l-.217-.649c-.072-.432-.144-.937-.36-1.441-.216-1.082-.433-2.019-.72-2.956 0-.144-.073-.36-.145-.649l-.216-.72c-.072-.289-.144-.505-.144-.721l-.217-.65c-.216-.504-.36-.936-.432-1.44l-.216-.722c-.505-2.378-1.298-4.613-1.803-6.992-.072-.36-.144-.649-.144-.72l-.793-3.389-.216-.72-.216-.65c-.216-.504-.144-.792-.36-1.297l-.217-.72c-.216-1.37-1.081-2.019-2.162-2.307l-.65-.144c-1.513.216-3.027-.072-4.54-.072-.36 0-.65 0-.865.072-1.73.36-2.307 2.523-2.595 4.18l-.217.65-.216.72a44.182 44.182 0 00-1.297 4.397c0 .144-.072.36-.145.649-.288 1.225-.648 2.379-1.009 3.532 0 .144-.072.36-.144.649a37.685 37.685 0 01-.865 3.892l-.144.505-.216.649a21.472 21.472 0 01-.65 3.1l-.864 2.594c-.577 2.019-.865 4.037-1.442 6.055-.504-1.37-.576-2.667-.865-4.036 0-.144-.072-.36-.144-.649l-.216-.649c-.072-.432-.144-.937-.36-1.441-.217-1.082-.433-2.019-.721-2.956 0-.144-.073-.36-.145-.649l-.216-.72c-.072-.289-.144-.505-.144-.721l-.216-.65c-.217-.504-.36-.936-.433-1.44l-.216-.722c-.505-2.378-1.298-4.613-1.802-6.992-.072-.36-.144-.649-.144-.72-.36-1.659-.65-3.028-1.154-4.686l-.216-.793-.144-.649-.216-.576c-.36-1.658-1.514-2.163-2.884-2.38-.144-.071-.36-.071-.72-.071-1.226-.072-2.451-.216-3.821-.144h-.577c-.793.216-1.802 0-2.306.793-.577 1.08-.145 2.234.36 3.315l.216.65c0 .071.072.215.144.504l.145.432c.504 1.37.648 2.595 1.009 3.965l.216.649.577 2.018.216.793 1.225 5.262.145.72c.504 2.091 1.225 3.965 1.73 6.2.072.288.144.505.144.649l.649 2.595.648 2.162.144.577c.073.288.145.505.145.577l.216.72.432 1.803.217.576c.504 2.09 1.153 4.181 1.658 6.272 0 .216.072.432.072.648l1.513 4.902c0 .216.072.433.145.72l.216.578c.216.937.649 1.585 1.225 2.018l.577.432c.36.217.793.289 1.297.36.217 0 .505.073.721.073 2.307-.216 4.902.504 6.704-1.298.216-.288.288-.504.36-.648l.36-.65c.578-1.44.866-3.17 1.082-4.54l.216-.65c.36-1.44.793-2.883 1.082-4.324l.216-.649c.072-.288.144-.505.144-.649l.216-.648c.217-.577.289-1.298.505-1.875v-.36c.577-1.514.937-3.028 1.442-4.541l.432-1.442.144-.649c.65-2.018.721-4.18 1.514-6.127a46.47 46.47 0 011.01 3.388c.071.288.143.505.143.649l.65 2.595.648 2.162.144.577c.072.288.144.505.144.577l.216.72.433 1.803.216.576c.505 2.09 1.154 4.181 1.658 6.272 0 .216.072.432.072.648l1.514 4.902c0 .216.072.433.144.72l.216.578c.217.937.65 1.585 1.226 2.018l.577.432c.36.217.792.289 1.297.36.216 0 .505.073.72.073 2.308-.216 4.903.504 6.705-1.298.216-.288.288-.504.36-.648l.36-.65c.577-1.44.866-3.17 1.082-4.54l.216-.65c.36-1.44.793-2.883 1.081-4.324l.217-.649c.072-.288.144-.505.144-.649l.216-.648c.216-.577.288-1.298.505-1.875v-.36c.576-1.514.937-3.028 1.441-4.541l.433-1.442.144-.649c.793-2.09.793-4.397 1.658-6.415.072-.144.216-.36.288-.649 0-.144.072-.36.144-.649l.145-.72.144-.505.144-.721.865-3.46.216-.72a30.34 30.34 0 00.865-3.46l.216-.65.217-.937c.072-.216.144-.36.144-.432a87.523 87.523 0 011.73-5.767c.072-.288.144-.505.144-.649v-.648c-.216-2.307-3.172-1.298-4.83-1.514zm-.65 6.055c-.071.288-.144.504-.144.576-.216.36-.216.793-.288 1.154l-.432 1.874c-.289 1.514-.721 2.955-1.226 4.47l-.288.936c-.649 1.947-1.226 4.037-1.586 6.127l-2.163 7.93a47.817 47.817 0 00-1.297 4.253c0 .144-.072.36-.144.648-.505 2.235-1.081 4.253-1.658 6.344-.072.36-.144.648-.144.793-.072.072-.072.216-.072.288v.144l-.145.505-.288 1.009-.216.72c-.216.577-.288 1.298-.505 1.947a1.38 1.38 0 01-.288.577c-.216.432-.577.72-1.01.793a1.228 1.228 0 01-.72 0c-2.018.36-2.307-1.875-2.45-3.316l-.217-.721c-.216-.36-.216-.72-.289-1.01l-.144-.504c0-.072 0-.649-.216-1.225-.216-.577-.36-1.154-.36-1.226-.65-2.09-1.01-4.253-1.658-6.343l-.289-1.225-.793-2.451-2.162-7.93-.216-1.225c-.505-1.946-1.082-3.893-1.658-5.839l-.36-1.153c-.289-1.081-.65-2.163-.866-3.316l-.432-1.874-.216-.865c-.217-.505-.289-.721-.36-1.226l-.433 1.514c-.072.288-.145.505-.145.577l-.432 1.874c-.288 1.514-.72 2.955-1.225 4.47l-.289.936c-.649 1.947-1.225 4.037-1.586 6.127l-2.162 7.93a47.817 47.817 0 00-1.298 4.253c0 .144-.072.36-.144.648-.504 2.235-1.081 4.253-1.658 6.344-.072.36-.144.648-.144.793-.072.072-.072.216-.072.288v.144l-.144.505-.289 1.009-.216.72c-.216.577-.288 1.298-.504 1.947a1.38 1.38 0 01-.289.577c-.216.432-.576.72-1.009.793a1.228 1.228 0 01-.72 0c-2.02.36-2.307-1.875-2.452-3.316l-.216-.721c-.216-.36-.216-.72-.288-1.01l-.144-.504c0-.072 0-.649-.217-1.225-.216-.577-.36-1.154-.36-1.226-.649-2.09-1.01-4.253-1.658-6.343l-.288-1.225-.793-2.451-2.163-7.93-.216-1.225c-.505-1.946-1.081-3.893-1.658-5.839l-.36-1.153c-.289-1.081-.649-2.163-.865-3.316l-.433-1.874-.432-1.73c-.217-.937-.721-2.163-.36-2.74.576-.936 1.441.65 1.441 1.586l.216.65.216.792a.773.773 0 01.073.36l.576 2.163c.216 1.73.721 3.388 1.298 5.046.072.288.216.505.288.72l.865 3.533.577 2.018.144.649c0 .072 0 .144.072.216l.937 3.46 1.874 6.848c.217.793.36 1.514.577 2.163.505 1.514.865 3.1 1.225 4.613.072.505.145 1.01.36 1.514l.722 2.667.144.72.504 1.803c.072.288.145.505.145.649 0 .216.072.288.144.36.216.072.36.144.576.144.289 0 .433-.072.505-.288.072-.216.144-.433.144-.72l.144-.505c.217-.505.289-.938.505-1.442l.144-.721.937-3.388.144-.793c.36-1.225.65-2.45.937-3.604l.145-.505c.576-2.306 1.441-5.55 2.234-8.217l1.298-4.758 1.513-5.766c.073-.433.217-.865.433-1.37.577-1.658 1.081-3.316 1.297-5.046v-.072c0-.072 0-.216.073-.288l.216-.721.216-.649c.072-.216.144-.432.144-.649.216-.937.505-2.45 1.73-2.378 1.442.072 1.226 1.73 1.586 2.81 0 .073.072.217.144.433l.216.433.217.72v.289c0 .072 0 .072.072.072.216 1.73.72 3.388 1.297 5.046.072.288.217.505.289.72l.865 3.533.576 2.018.145.649c0 .072 0 .144.072.216l.937 3.46 1.874 6.848c.216.793.36 1.514.577 2.163.504 1.514.865 3.1 1.225 4.613.072.505.144 1.01.36 1.514l.721 2.667.144.72.505 1.803c.072.288.144.505.144.649 0 .216.072.288.144.36.217.072.36.144.577.144.288 0 .432-.072.505-.288.072-.216.144-.433.144-.72l.144-.505c.216-.505.288-.938.505-1.442l.144-.721.937-3.388.144-.793c.36-1.225.649-2.45.937-3.604l.144-.505a211.62 211.62 0 012.235-8.217l1.297-4.758L93.6 16.74c.072-.433.216-.865.433-1.37.576-1.658 1.08-3.316 1.297-5.046l.577-2.162c0-.073 0-.217.072-.289 0-.072.072-.288.144-.649l.216-.865c.217-1.08.649-2.45 1.442-1.585.36.504 0 1.802-.288 2.739zm42.53 35.898c-.072-.36-.36-.721-.793-.938-1.225-.576-2.883.073-4.541-.144h-.649c-.504 0-.865-.072-1.37-.144h-13.047V37.86c0-2.234.072-4.253 0-6.487v-.65c3.316 0 9.3-.071 14.273-.071h.865c1.73-.217 5.046.793 4.685-2.09v-.722c0-.504 0-.937.073-1.441v-.793l.216-2.379v-.504c.072-.65-.144-1.226-.649-1.586-1.081-.65-2.307-.072-3.532-.289h-1.514c-.504 0-.865-.072-1.37-.144h-12.83c0-.288 0-.649.072-1.009v-6.343c0-.217-.072-.937-.072-1.875 3.676 0 9.947-.072 14.921-.072h.505c1.441 0 3.387.577 4.036-.216l.36-.505c.073-.36.217-.792.289-1.37v-.432c.072-1.37-.216-2.595.072-3.964 0-.289.072-.577.072-.793.072-1.081 0-1.874-.865-2.379-1.225-.577-2.883.072-4.541-.144h-.649c-.504 0-.865-.072-1.37-.144h-14.344c-2.019-.289-3.965-.144-5.983-.072-.216 0-.433.072-.649.072-.793.216-1.514.504-1.874 1.441 0 .217-.072.433-.072.721-.072.433 0 .937.144 1.514v2.595c0 2.018-.072 4.109 0 5.91v.506c-.216 2.595-.144 5.19-.216 7.785v.793c-.072 1.37-.144 2.522-.072 3.892v3.316c0 2.09.072 11.245.072 17.3v.505c0 1.225-.36 2.739-.072 3.604.072.216.216.36.288.432 1.081.577 2.09.577 3.244.505h.72c2.235-.216 4.398 0 6.632-.072h1.586c3.676 0 8.65-.072 12.687-.072h.505c1.441 0 3.387.576 4.036-.217l.36-.504.145-.433c.649-2.306.144-4.613.36-6.848l-.144-.72zm-4.47 4.397c-2.234.504-4.252.144-6.342.072-.217 0-.433-.072-.721-.072-1.658-.072-3.244-.072-4.902.144h-2.883c-2.09-.072-4.181.216-6.272 0a.757.757 0 01-.36-.649v-19.75c0-1.659-.144-3.245-.072-4.903v-.648c.072-.36.072-.721.072-1.226v-1.514c-.072-2.234-.144-4.252.144-6.487v-.649c0-1.37-.072-2.45-.144-3.82V5.854c0-.577.504-.865 1.01-.649h2.955c1.946 0 3.892-.144 5.838-.072h2.163c.216 0 .432.072.649.072 2.234-.072 4.253.216 6.487 0h.649c.649-.072 1.297-.144 1.946-.144.937 0 .937 1.442 0 1.442-.649 0-1.297.072-1.946.144-.36 0-.577 0-.721.072-2.235.072-4.18-.288-6.415-.072-.145-.072-.36-.072-.65-.072h-2.09c-2.09-.072-4.253.072-6.343.072h-2.09v2.45c.072 1.37.072 2.596.072 3.821-.072.144-.072.36-.072.649v11.605h2.739c2.09.072 4.253.072 6.343.072h5.262c1.658.073 3.388-.072 5.046-.072.216 0 .36.072.505.217.288.36.216 1.009-.144 1.08-1.947.505-3.605.217-5.407.217h-5.262c-2.09 0-4.253-.144-6.343-.072h-2.74v3.893c-.216 1.946.145 3.892-.072 5.838v3.46c.073.145.073.36.073.577v4.902c0 .504-.073 1.081 0 1.081 1.441.505 2.955.144 4.469.144h3.892c1.514-.216 2.956-.144 4.47-.072h.648c2.235.216 4.181-.144 6.416.144.576.072.72 1.01.144 1.226zm23.572-34.456c.072-.145.144-.36.36-.65l.505-.504c.577-.648 1.226-1.081 2.019-1.297l.72-.217c2.091-.216 4.398-.072 6.344.866l.432.288.433.36c.216.289.432.505.649.865a5.983 5.983 0 011.009 1.874l.144.65c.072.504.144 1.008.36 1.513.145.505.36.865.721 1.225 1.947.65 4.181.217 6.2.433.288 0 .504 0 .648.072 1.442 0 2.74-.937 2.812-2.45 0-.361 0-.578-.073-.722l-.288-2.234-.144-.577c-.216-1.081-.433-2.018-1.01-2.955a11.859 11.859 0 00-.72-1.37c-.36-.865-.937-1.73-1.658-2.595l-.505-.505a16.873 16.873 0 00-2.523-2.09l-.576-.433c-2.019-1.225-4.325-1.585-6.56-2.09h-1.081c-3.244.216-6.56-.216-9.66.937l-.936.36c-1.658.793-3.172 1.514-4.325 2.884l-.577.649c-.505.648-1.01 1.297-1.37 2.09-.432.72-.793 1.442-1.009 2.09l-.36 1.154c-.505 1.153-.793 2.234-.865 3.604 0 .216-.072.433-.072.72.216 2.235 0 4.542 1.08 6.633.073.144.145.36.361.648.289.505.577.865.937 1.226l.505.504a16.84 16.84 0 003.82 3.244l.433.216.504.217c2.09 1.37 4.47 2.018 6.704 2.955l.721.216c2.235.577 4.325 1.514 6.271 2.667.217.073.36.145.577.36.36.217.649.578.937.938.072.216.216.36.289.432l.216.65.144.576v.72c-.072 1.73-.649 3.317-2.018 4.47l-.505.36c-.36.217-.72.433-1.081.505l-.721.216c-2.09.216-4.397.072-6.343-.865l-.433-.288-.433-.36c-.216-.289-.432-.505-.648-.866-.649-.793-.937-1.658-1.154-2.523l-.144-.72c0-.217-.072-.289-.072-.505 0-.505-.072-1.01-.288-1.37l-.289-.504-.432-.433c-.216-.072-.433-.216-.72-.288-.794-.216-1.659-.288-2.596-.288-.288 0-.504 0-.649-.072-1.153.216-2.523 0-3.748.216-.216 0-.433.072-.72.216-1.443.505-1.298 2.163-1.01 3.388v.505c0 .144 0 .216.072.288.288 1.802.505 3.532 1.37 5.19l.216.577.288.576c.216.217.144.36.36.577.505.865 1.01 1.658 1.514 2.307l.505.504a16.873 16.873 0 002.523 2.09l.577.433c2.018 1.226 4.325 1.586 6.56 2.09h1.08c3.244-.216 6.56.217 9.66-.936l.937-.36c1.658-.794 3.172-1.515 4.325-2.884l.577-.649c.504-.649 1.009-1.297 1.37-2.09l.287-.505.217-.505c.937-1.946 1.513-4.036 1.874-6.127 0-.288.072-.504.072-.793 0-.793-.072-1.585-.288-2.306 0-.289 0-.505-.072-.721-.145-2.379-1.01-4.397-2.523-6.127l-.36-.433-1.154-1.297-.649-.577c-1.37-1.081-2.883-1.586-4.397-2.162-.144-.073-.36-.217-.649-.289-2.306-.937-4.757-1.514-6.992-2.595-.288-.072-.504-.144-.577-.144-1.73-.577-3.387-1.298-4.757-2.523l-.505-.577c-1.08-1.153-1.08-3.1-.288-4.469.072-.216.144-.36.288-.504zm-1.153-5.983c-.793.504-1.586 1.153-2.235 1.946l-.36.432c-1.442 2.09-1.802 4.542-1.298 7.065l.145.648c.288 1.73 1.441 3.172 2.955 4.253l.577.433c.937.72 1.946 1.297 3.027 1.73l.649.288c.577.216 1.153.505 1.802.865l.505.216.504.217.433.144c2.09.937 4.253 1.73 6.343 2.667l.649.36c.793.289 1.37.721 1.946 1.082l.577.432c1.442 1.226 2.307 2.956 3.1 4.686l.144.576c.216.505.144.793.144 1.298v.576c0 .865-.072 1.73-.289 2.523l-.288 1.01-.144.432c-.072.288-.216.505-.288.72l-.289.65c-.72 1.513-1.73 2.739-3.027 3.676l-.649.432c-.793.505-1.658.938-2.45 1.298l-.65.288c-2.378.793-4.901.577-7.424.505l-.721-.144c-2.235-.505-4.18-1.154-5.839-2.812l-.504-.504-.505-.505c-1.658-1.946-2.45-4.253-2.523-6.776l-.144-.504c-.288-.865 1.081-1.226 1.37-.36.072.216.144.36.144.504 0 .216.072.288.072.505.072 2.234.865 4.18 2.378 5.91l.505.433c1.37 1.442 3.172 2.307 5.118 2.811.216 0 .433.072.72.072 2.524.577 5.19.217 7.57-.648l.504-.217 1.442-.937c.216-.072.36-.216.432-.288l.36-.288.578-.505c.937-.937 1.73-2.018 2.234-3.244.072-.216.216-.432.288-.72l.145-.433c.216-.649.288-1.298.36-1.874 0-.36 0-.577.072-.793v-.721c-.288-2.235-1.37-4.253-3.027-5.623a1.275 1.275 0 00-.577-.36 4.997 4.997 0 00-1.225-.72 1.38 1.38 0 00-.577-.29c-2.307-1.225-4.758-2.09-7.136-2.955-.217-.072-.36-.216-.433-.288l-.432-.216c-.65-.36-1.298-.65-1.947-.937l-.72-.289c-1.226-.504-2.235-1.081-3.1-1.73l-.577-.432c-1.73-1.37-3.172-3.1-3.676-5.334 0-.217-.072-.505-.072-.721a8.197 8.197 0 011.153-7.209l.433-.648.36-.505.433-.649a10.705 10.705 0 012.883-2.234l.72-.289a11.448 11.448 0 012.235-.648c.36 0 .577 0 .793-.073 2.595-.216 5.19-.288 7.713.577.072 0 .289.072.577.144.649.144 1.153.36 1.658.649l.577.36c2.378 1.226 3.964 3.1 4.757 5.623l.216.649c.217.649.289 1.297.217 2.09 0 .937-1.442.937-1.442 0 .072-.649 0-1.225-.216-1.802l-.217-.649c-.576-2.234-2.306-3.82-4.397-4.901l-.504-.217a3.768 3.768 0 00-1.154-.432c-.288-.072-.504-.144-.576-.144-2.235-.505-4.397-.865-6.632-.649-.288 0-.505 0-.649.072-1.081.216-1.946.505-3.027 1.01l-.577.36zm67.182 19.102c.072-2.307.216-4.686 0-7.064l-.144-1.442v-.505l-.144-1.37c-.36-2.09-.36-4.252-1.514-6.198a11.859 11.859 0 00-.72-1.37c-.361-.865-.938-1.73-1.659-2.595l-.504-.505a16.873 16.873 0 00-2.523-2.09l-.577-.433c-2.018-1.225-4.325-1.585-6.56-2.09h-1.08c-3.245.216-6.56-.216-9.66.937l-.937.36c-1.658.793-3.172 1.514-4.325 2.884l-.577.649c-.504.648-1.009 1.297-1.37 2.09-.504.937-1.009 2.018-1.369 3.244-.649 1.802-.937 3.748-1.153 5.694l-.145 1.37c0 .216-.072.433-.072.649l-.144 1.946c0 .216-.072.433-.072.649-.216 1.802-.216 3.532-.144 5.334v.649c.216 1.946.144 3.748.216 5.694v.65c.072 1.153.144 2.306.36 3.46.217 1.945.505 3.892 1.154 5.694.36 1.225.865 2.307 1.37 3.244.36.793.865 1.441 1.37 2.09l.576.649c1.153 1.37 2.667 2.09 4.325 2.883l.937.36c3.1 1.154 6.415.721 9.66.938h1.08c2.235-.505 4.542-.865 6.56-2.09l.577-.433a16.873 16.873 0 002.523-2.09l.504-.505c1.442-1.802 2.38-3.893 3.316-5.983 0-.217.072-.433.072-.649 0-.216.072-.505.072-.72l.36-2.235c0-.289 0-.65.073-.938.216-1.08.216-2.018.288-2.955.216-2.379.072-4.758 0-7.064v-.793zm-10.38 6.055v.432c0 .433 0 .721.072.938l-.144.792c0 .577-.072 1.442-.36 2.019-.217 1.441-.433 2.811-1.37 3.964-.216.36-.433.577-.649.865l-.432.36-.433.29c-1.946.936-4.253 1.08-6.343.864l-.721-.216c-.793-.216-1.442-.649-2.018-1.298l-.505-.504c-.216-.289-.288-.505-.36-.649-.217-.36-.433-.649-.577-1.01-.216-.72-.433-1.513-.505-2.378 0-.216-.072-.432-.072-.649a12.492 12.492 0 01-.216-2.306c-.072-1.082-.144-1.947-.144-2.884 0-.288-.072-.504-.072-.72 0-.289-.072-.505-.072-.793 0-2.09.288-4.253.072-6.344 0-.216.072-.432.072-.72 0-.938.072-1.803.144-2.884 0-.72.072-1.514.216-2.307 0-.216.072-.432.072-.648.072-.865.289-1.658.505-2.38.144-.36.36-.648.577-1.008.072-.145.144-.36.36-.65l.505-.504c.576-.648 1.225-1.081 2.018-1.297l.72-.217c2.091-.216 4.398-.072 6.344.866l.433.288.432.36c.216.289.433.505.649.865.937 1.154 1.153 2.523 1.37 3.965.288.577.36 1.442.36 2.018l.144.793c-.072.577-.072 1.226-.072 1.874v2.884c.072.648.144 1.225.144 2.018v.649c0 1.225-.288 2.45-.216 3.676 0 .216.072.288.072.505v1.08zm6.055 2.162l-.144 1.514c0 .216 0 .433-.072.505-.288 2.523-1.298 4.901-2.235 6.848l-.072.072-.432.577-.433.576-.576.577c-1.298 1.225-2.74 2.162-4.398 2.739h-.072l-.648.144-.433.144c-.216 0-.432.072-.72.145-.217 0-.505.072-.722.072-.793.216-1.658.288-2.595.288-1.513 0-3.1-.216-4.757-.72l-.721-.217h-.072l-.649-.288-1.225-.577c-1.802-.937-3.172-2.595-4.253-4.974l-.433-1.297c-.504-1.37-.648-2.884-.865-4.253-.216-.793-.216-1.658-.288-2.523v-2.38c-.072-1.225-.072-2.594-.144-3.387v-.505c0-1.37.072-6.055.072-7.352 0-.216.072-.289.072-.36v-.145l.144-1.441v-.433l.144-1.01c.072-1.225.289-2.378.649-3.603l.216-.721c.072-.216.072-.505.289-.721.072-.144.144-.36.36-.649v-.072c1.081-1.658 2.667-3.964 5.19-5.334h.072l.721-.288c1.73-.65 3.604-.65 5.406-.721h2.812c1.37.288 2.883.504 4.253 1.297l.576.289.072.072c.649.504 1.082.793 1.586 1.297l.505.505c2.018 2.234 3.316 4.757 3.532 7.569 0 .216.072.36.072.576v.072l.144 1.01v.36l.072 1.081c.216 1.73 0 6.92 0 8.578v.577c.072 2.018.072 4.685 0 6.343v.144zm-1.37-7.064c0-1.658.217-6.848 0-8.506l-.072-1.08v-.361l-.072-.937-.144-.65v-.071c-.216-2.523-1.297-4.758-3.1-6.704l-.504-.433c-.36-.36-.865-.793-1.442-1.225l-.432-.216c-1.226-.649-2.595-.937-3.965-1.154h-2.523c-1.73 0-3.316.072-4.974.65l-.648.215c-2.235 1.154-3.677 3.244-4.614 4.758l-.288.649-.216.648-.216.577c-.36 1.153-.433 2.307-.65 3.388l-.071.937v.288c-.072.073-.072.145-.072.145v.072l-.072 1.37c0 .143 0 .216-.073.288v.216c0 1.225-.072 5.91-.072 7.208v.505c.072.865.072 2.234.072 3.388 0 .793.073 1.37.073 1.874v.505l.216 2.45c.216 1.37.36 2.595.865 3.965l.36 1.153c1.081 2.235 2.307 3.677 3.676 4.325.217.217.577.36 1.082.505l.648.288.65.217c1.585.432 3.027.648 4.396.648.793 0 1.586-.072 2.307-.216h.072l.649-.144c.144 0 .36-.072.649-.144h.072c.216 0 .216-.072.432-.072.289-.072.505-.144.577-.144 1.37-.505 2.74-1.298 3.892-2.451l.505-.433.36-.504.36-.505c.938-1.946 1.875-4.037 2.163-6.343v-.505c.072-.505.145-.937.145-1.442v-.144c.216-1.658.072-4.253 0-6.271v-.577zM277.27 47.23c0-6.055.072-15.21.072-17.3v-3.965l-.216-6.271v-.72c-.072-.073-.072-.145-.072-.217V5.133c.144-.577.216-1.081.144-1.514 0-.288-.072-.504-.072-.72-.36-.938-1.082-1.226-1.875-1.442-.216 0-.432-.072-.648-.072-.649 0-1.298-.072-1.874-.072h-.65c-1.225-.072-2.45-.145-3.531.36-.217.072-.36.216-.433.288l-.288.36c-.937 1.73-2.019 3.317-2.884 5.047a1.57 1.57 0 01-.36.576c-.577 1.082-1.081 2.09-1.874 2.956-.072.216-.144.36-.36.576-.793 1.154-1.442 2.307-1.947 3.677-.216.216-.144.36-.36.576l-.433.793c-.216.505-.576.865-.793 1.37-.072.144-.216.288-.288.504l-.144.217c-1.081 1.802-1.802 3.676-2.884 5.478l-.288.577-.216.649c0-.217-.072-.433-.072-.65-.072-.215-.144-.36-.144-.504-1.154-1.441-1.802-3.244-2.595-4.902l-.289-.576c-.216-.36-.432-.793-.72-1.154-.505-.648-.721-1.225-1.01-2.018l-.216-.577-1.658-3.532c-.216-.216-.216-.288-.288-.504l-.649-1.01-.216-.36-.433-.793-.288-.576c-.865-1.442-1.874-2.812-2.667-4.325l-.36-.577-.289-.577-.216-.36-.289-.36a1.108 1.108 0 00-.432-.289c-1.081-.505-2.307-.432-3.532-.36h-.649c-.577 0-1.225.072-1.874.072-.216 0-.433.072-.649.072l-.793.216c-.288.216-.504.36-.576.505-.865.937-.433 2.378-.433 3.604v12.975c0 .072-.072.144-.072.216v.721l-.216 6.271v3.965c0 2.09.072 11.245.072 17.3v.505c0 1.441-.577 3.388.216 4.036l.505.36c.793.29 1.73.361 2.739.29h.72c1.154-.29 2.524.215 3.749.215.216 0 .288-.072.505-.072 2.018-.793.793-3.532 1.37-5.262v-.432c0-.577.071-1.154.143-1.73V32.885a57.226 57.226 0 000-4.973c0-.217 0-.36.072-.433v-.937c.073-1.37-.072-2.595-.144-3.965.793 1.37 1.37 2.812 2.235 4.181l.288.433c1.082 1.441 1.874 3.027 2.667 4.685l.36.505c.794 1.153 1.587 2.234 2.091 3.604.072.216.144.432.289.505.072.144.216.288.432.504.505.793.937 1.73 1.442 2.523.648 1.081 2.09 1.153 3.243.865.217-.072.36 0 .577-.216l.577-.289c.36-.288.649-.648.865-1.153.072-.216.072-.288.288-.504.577-1.082 1.226-2.019 1.73-3.172l.216-.505c.505-1.37 1.226-2.379 2.163-3.46l.216-.432.433-1.01c.216-.216.216-.288.288-.504l.216-.505c.072-.216.072-.288.289-.504.072-.216.216-.36.288-.433 1.225-1.658 1.802-3.388 2.883-5.118-.072 1.37-.216 2.595-.144 3.965v.505c.072.865.072 1.73.072 2.595V45.14c.217.865.144 1.73.144 2.595v.648c-.072 1.082-.216 2.019 0 2.812 0 .144.073.288.145.504.216.433.576.721 1.009.793l.576.144 5.55-.216h.433c.577-.072 1.01-.216 1.37-.288l.505-.36c.793-.65.216-2.596.216-4.037v-.505zm-4.47-28.906c.073.505.073.937.073 1.442v14.777c-.072 1.154-.072 2.379-.072 3.532v.721c.36 2.09-.289 4.109-.072 6.2 0 .288 0 .504.072.576 0 .505 0 .865.072 1.226v1.585c0 .433-.217.65-.721.65-.216 0-.433-.073-.505-.145-.216-.577-.216-1.225-.288-1.802v-2.523c.216-1.514 0-2.956.072-4.47v-3.171c.072-.072.072-.288.072-.505v-.576c0-.937 0-1.802-.072-2.74 0-.288 0-.504.072-.72.072-2.09.144-4.109-.072-6.344v-.576c.144-2.09.144-4.253 0-6.344v-.937c-.072-1.658-.216-3.027 0-4.685V11.62c.216-1.73.144-3.533.072-5.263-.36.505-.577 1.082-.865 1.658-.504 1.082-1.153 1.947-1.802 3.028l-.288.432c-1.082 1.73-1.802 3.533-2.884 5.263l-.288.648-.577 1.37c-.216.36-.288.793-.576 1.081l-.289.577c-1.37 1.802-2.45 3.676-3.388 5.694l-.432.65c-.288.504-.505.792-.721 1.297l-.288.576-.36.577-1.514 2.595c-.073.144-.145.36-.36.649-.506.865-.722 2.09-1.659 2.45-.793.217-.937-.936-1.442-1.441-.072-.216-.216-.288-.288-.505-.504-.865-.937-1.802-1.586-2.667l-.288-.576-.505-.65-.432-.72-.433-.649c-.937-1.441-1.658-3.027-2.595-4.541l-.432-.649-.36-.649c-.289-.792-.721-1.513-1.082-2.306l-.649-1.154c-1.37-2.018-2.09-4.252-3.46-6.27l-.648-1.154-.721-1.154-.36-.504a4.09 4.09 0 00-.866-1.298c.072 1.082-.144 2.235-.072 3.316v2.018c-.216 1.73-.288 3.533-.072 5.263.072.504.072.937.072 1.441v14.778c-.072 1.153-.072 2.378-.072 3.532v.72c.36 2.091-.288 4.11-.072 6.2 0 .288 0 .504.072.576 0 .505 0 .865.072 1.226v.793c-.072.649-.144 1.73-1.009 1.441-.72-.144-.288-1.297-.504-1.946v-2.522c.216-1.514 0-2.955.072-4.469V37.21c.072-.072.072-.288.072-.504v-.577c0-.937 0-1.802-.072-2.74 0-.287 0-.504.072-.72.072-2.09.144-4.109-.072-6.343v-.577a46.62 46.62 0 000-6.343v-.937c-.072-1.658-.217-3.028 0-4.686v-1.586c.216-2.234.144-4.541.144-6.776.072-.288.216-.504.36-.576.793-.505 1.226.288 1.514.865l.216.504c.072.217.289.505.577.865.216.217.288.36.36.577.36.577.721 1.081 1.01 1.73l.36.577.649 1.08 3.243 6.2.577 1.081c.36.793.649 1.514 1.153 2.163l.217.504.432.65c.072.215.144.432.36.576l2.307 4.18.433.577.216.433c.072.072.216.216.288.432l.36.505a41.246 41.246 0 002.452 4.109l.36.577c.216-.217.144-.36.36-.577.793-1.37 1.298-2.09 1.947-3.46.216-.289.288-.505.36-.649l.216-.432.36-.65c.073-.288.217-.504.29-.648.071-.144.143-.36.36-.649 1.08-2.234 2.306-4.253 3.676-6.199.072-.144.144-.36.36-.649l.865-1.874c.072-.144.217-.36.289-.649l3.316-6.199c.072-.216.216-.36.288-.432l.288-.433c.577-.937 1.01-1.802 1.514-2.739.288-.505.505-1.01.865-1.514l.36-.504c.505-.505 1.298-.793 1.802-.217.505.577.145 1.298.217 1.947 0 .288 0 .504.072.648 0 1.226 0 2.451-.072 3.677v2.234c-.217 1.73-.289 3.532-.072 5.262zm43.9 25.086c-.072-.36-.36-.721-.793-.938-1.226-.576-2.884.073-4.541-.144h-.65c-.504 0-.864-.072-1.369-.144H296.3V37.86c0-2.234.072-4.253 0-6.487v-.65c3.316 0 9.299-.071 14.273-.071h.865c1.73-.217 5.045.793 4.685-2.09v-.722c0-.504 0-.937.072-1.441v-.793l.216-2.379v-.504c.072-.65-.144-1.226-.648-1.586-1.082-.65-2.307-.072-3.532-.289h-1.514c-.505 0-.865-.072-1.37-.144h-12.83c0-.288 0-.649.071-1.009v-6.343c0-.217-.072-.937-.072-1.875 3.677 0 9.948-.072 14.922-.072h.504c1.442 0 3.388.577 4.037-.216l.36-.505c.072-.36.217-.792.289-1.37v-.432c.072-1.37-.217-2.595.072-3.964 0-.289.072-.577.072-.793.072-1.081 0-1.874-.865-2.379-1.226-.577-2.884.072-4.541-.144h-.65c-.504 0-.864-.072-1.369-.144h-14.345c-2.018-.289-3.964-.144-5.982-.072-.217 0-.433.072-.65.072-.792.216-1.513.504-1.873 1.441 0 .217-.073.433-.073.721-.072.433 0 .937.145 1.514v2.595c0 2.018-.072 4.109 0 5.91v.506c-.217 2.595-.145 5.19-.217 7.785v.793c-.072 1.37-.144 2.522-.072 3.892v3.316c0 2.09.072 11.245.072 17.3v.505c0 1.225-.36 2.739-.072 3.604.072.216.217.36.289.432 1.08.577 2.09.577 3.243.505h.721c2.235-.216 4.397 0 6.632-.072h1.586c3.676 0 8.65-.072 12.687-.072h.504c1.442 0 3.388.576 4.037-.217l.36-.504.144-.433c.65-2.306.145-4.613.36-6.848l-.143-.72zm-4.47 4.397c-2.234.504-4.252.144-6.343.072-.216 0-.432-.072-.72-.072-1.659-.072-3.244-.072-4.902.144h-2.884c-2.09-.072-4.18.216-6.271 0a.757.757 0 01-.36-.649v-19.75c0-1.659-.145-3.245-.073-4.903v-.648c.073-.36.073-.721.073-1.226v-1.514c-.073-2.234-.145-4.252.144-6.487v-.649c0-1.37-.072-2.45-.144-3.82V5.854c0-.577.504-.865 1.009-.649h2.955c1.946 0 3.893-.144 5.839-.072h2.162c.217 0 .433.072.65.072 2.234-.072 4.252.216 6.487 0h.649c.648-.072 1.297-.144 1.946-.144.937 0 .937 1.442 0 1.442-.649 0-1.298.072-1.946.144-.36 0-.577 0-.721.072-2.235.072-4.181-.288-6.416-.072-.144-.072-.36-.072-.649-.072h-2.09c-2.09-.072-4.253.072-6.343.072h-2.09v2.45c.071 1.37.071 2.596.071 3.821-.072.144-.072.36-.072.649v11.605h2.74c2.09.072 4.252.072 6.343.072h5.262c1.658.073 3.388-.072 5.046-.072.216 0 .36.072.504.217.289.36.217 1.009-.144 1.08-1.946.505-3.604.217-5.406.217h-5.262c-2.09 0-4.253-.144-6.344-.072h-2.739v3.893c-.216 1.946.144 3.892-.072 5.838v3.46c.072.145.072.36.072.577v4.902c0 .504-.072 1.081 0 1.081 1.442.505 2.956.144 4.47.144h3.892c1.514-.216 2.955-.144 4.47-.072h.648c2.234.216 4.18-.144 6.415.144.577.072.721 1.01.145 1.226zm58.244-1.658c-.072-.36-.072-.721-.072-1.226v-.648c.216-1.082-.072-2.307-1.514-2.09h-12.182v-6.272c0-.649.072-1.298.072-1.946 0-.217.072-.433.072-.65.217-2.234-.072-4.396 0-6.63 0-.29 0-.505-.072-.722v-2.811c.217-1.946.217-3.604.433-5.55v-.721c0-.793-.072-1.658-.072-2.451v-.649c0-2.234.072-4.397-.144-6.632v-.648c0-1.73.576-4.037-.937-4.974l-.433-.144h-.505c-.144-.072-.36-.072-.648-.072-.36-.072-.793-.072-1.154-.072-.36 0-.576 0-.793.072h-.576c-.865 0-1.658.072-2.523.072-.216 0-.433.072-.649.072-.793.216-1.514.504-1.874 1.441 0 .217-.072.433-.072.721-.072.433 0 .937.144 1.514v2.595c0 2.018-.072 4.109 0 5.91v.506c-.216 2.595-.144 5.19-.216 7.785v.793c-.072 1.37-.144 2.522-.072 3.892v3.316c0 1.658.072 7.857.072 13.263v.505c-.072 2.307-.36 4.757-.144 7.136 0 .216 0 .433.072.505.072.216.216.36.288.432 1.081.577 2.09.577 3.244.505h.72c2.235-.216 4.398 0 6.632-.072h8.074c.216-.072.504-.072.865-.072.36 0 .648.072 1.153.072h.577c1.441.216 2.162-.937 2.162-2.307v-.432c.216-.865.144-1.802.072-2.667v-.65zm-3.82 1.297c-1.442.289-2.883.217-4.253.217h-.577c-1.37.216-2.811 0-4.18.072h-.433c-.649 0-1.226 0-1.874-.072h-3.965a.757.757 0 01-.36-.65v-3.387c-.217-1.226-.145-2.451-.145-3.676 0-.289.073-.505.073-.721 0-.505 0-.793.072-1.298V32.67c0-1.658-.072-3.244-.145-4.902v-.648c0-1.154.073-2.235.145-3.316V22.29c.072-1.946.072-3.604.072-5.55 0-.217 0-.433-.072-.577v-1.946c-.217-.865-.072-1.73-.072-2.523V10.25c.072-.144.072-.36.072-.72V4.988c.072-.144.072-.36.072-.649 0-.36.216-.504.648-.504.289 0 .721.144.721.504v5.406c-.216 1.947 0 3.893.072 5.84.073.215.073.432.073.792.216 2.307.072 4.686-.145 6.992v8.578c.072 2.523.217 4.83 0 7.353v6.92h7.641c1.154 0 2.307-.072 3.46-.072.289 0 .505-.072.721-.072.649 0 1.37 0 2.018.072.217 0 .433.072.505.216.216.36.36 1.01-.144 1.081zm45.124-20.976c.072-2.307.217-4.686 0-7.064l-.144-1.442v-.505l-.144-1.37c-.36-2.09-.36-4.252-1.514-6.198a11.859 11.859 0 00-.72-1.37c-.361-.865-.938-1.73-1.658-2.595l-.505-.505a16.873 16.873 0 00-2.523-2.09l-.577-.433c-2.018-1.225-4.325-1.585-6.56-2.09h-1.08c-3.244.216-6.56-.216-9.66.937l-.937.36c-1.658.793-3.172 1.514-4.325 2.884l-.577.649c-.504.648-1.009 1.297-1.37 2.09-.504.937-1.008 2.018-1.369 3.244-.649 1.802-.937 3.748-1.153 5.694l-.144 1.37c0 .216-.072.433-.072.649l-.145 1.946c0 .216-.072.433-.072.649-.216 1.802-.216 3.532-.144 5.334v.649c.216 1.946.144 3.748.216 5.694v.65c.073 1.153.145 2.306.36 3.46.217 1.945.505 3.892 1.154 5.694.36 1.225.865 2.307 1.37 3.244.36.793.865 1.441 1.37 2.09l.576.649c1.153 1.37 2.667 2.09 4.325 2.883l.937.36c3.1 1.154 6.416.721 9.66.938h1.08c2.235-.505 4.542-.865 6.56-2.09l.577-.433a16.873 16.873 0 002.523-2.09l.505-.505c1.441-1.802 2.378-3.893 3.315-5.983 0-.217.072-.433.072-.649 0-.216.073-.505.073-.72l.36-2.235c0-.289 0-.65.072-.938.216-1.08.216-2.018.288-2.955.217-2.379.072-4.758 0-7.064v-.793zm-10.38 6.055v.432c0 .433 0 .721.072.938l-.144.792c0 .577-.072 1.442-.36 2.019-.216 1.441-.433 2.811-1.37 3.964-.216.36-.432.577-.649.865l-.432.36-.433.29c-1.946.936-4.253 1.08-6.343.864l-.72-.216c-.794-.216-1.442-.649-2.02-1.298l-.504-.504c-.216-.289-.288-.505-.36-.649-.216-.36-.433-.649-.577-1.01-.216-.72-.432-1.513-.504-2.378 0-.216-.072-.432-.072-.649a12.492 12.492 0 01-.217-2.306c-.072-1.082-.144-1.947-.144-2.884 0-.288-.072-.504-.072-.72 0-.289-.072-.505-.072-.793 0-2.09.288-4.253.072-6.344 0-.216.072-.432.072-.72 0-.938.072-1.803.144-2.884 0-.72.072-1.514.217-2.307 0-.216.072-.432.072-.648.072-.865.288-1.658.504-2.38.144-.36.36-.648.577-1.008.072-.145.144-.36.36-.65l.505-.504c.577-.648 1.225-1.081 2.018-1.297l.721-.217c2.09-.216 4.397-.072 6.343.866l.433.288.432.36c.217.289.433.505.65.865.936 1.154 1.153 2.523 1.369 3.965.288.577.36 1.442.36 2.018l.144.793c-.072.577-.072 1.226-.072 1.874v2.884c.072.648.144 1.225.144 2.018v.649c0 1.225-.288 2.45-.216 3.676 0 .216.072.288.072.505v1.08zm6.055 2.162l-.144 1.514c0 .216 0 .433-.072.505-.288 2.523-1.297 4.901-2.235 6.848l-.072.072-.432.577-.433.576-.576.577c-1.298 1.225-2.74 2.162-4.397 2.739h-.072l-.65.144-.432.144c-.216 0-.432.072-.72.145-.217 0-.505.072-.721.072-.793.216-1.658.288-2.595.288-1.514 0-3.1-.216-4.758-.72l-.72-.217h-.073l-.649-.288-1.225-.577c-1.802-.937-3.172-2.595-4.253-4.974l-.433-1.297c-.504-1.37-.648-2.884-.865-4.253-.216-.793-.216-1.658-.288-2.523v-2.38c-.072-1.225-.072-2.594-.144-3.387v-.505c0-1.37.072-6.055.072-7.352 0-.216.072-.289.072-.36v-.145l.144-1.441v-.433l.144-1.01c.073-1.225.289-2.378.65-3.603l.215-.721c.073-.216.073-.505.289-.721.072-.144.144-.36.36-.649v-.072c1.081-1.658 2.667-3.964 5.19-5.334h.072l.721-.288c1.73-.65 3.604-.65 5.406-.721h2.812c1.37.288 2.883.504 4.253 1.297l.576.289.072.072c.65.504 1.082.793 1.586 1.297l.505.505c2.018 2.234 3.316 4.757 3.532 7.569 0 .216.072.36.072.576v.072l.144 1.01v.36l.072 1.081c.217 1.73 0 6.92 0 8.578v.577c.072 2.018.072 4.685 0 6.343v.144zm-1.37-7.064c0-1.658.217-6.848 0-8.506l-.071-1.08v-.361l-.072-.937-.145-.65v-.071c-.216-2.523-1.297-4.758-3.1-6.704l-.504-.433c-.36-.36-.865-.793-1.441-1.225l-.433-.216c-1.225-.649-2.595-.937-3.965-1.154h-2.523c-1.73 0-3.315.072-4.973.65l-.65.215c-2.234 1.154-3.675 3.244-4.612 4.758l-.289.649-.216.648-.216.577c-.36 1.153-.433 2.307-.649 3.388l-.072.937v.288c-.072.073-.072.145-.072.145v.072l-.072 1.37c0 .143 0 .216-.072.288v.216c0 1.225-.072 5.91-.072 7.208v.505c.072.865.072 2.234.072 3.388 0 .793.072 1.37.072 1.874v.505l.216 2.45c.216 1.37.36 2.595.865 3.965l.36 1.153c1.082 2.235 2.307 3.677 3.677 4.325.216.217.576.36 1.08.505l.65.288.648.217c1.586.432 3.028.648 4.398.648.792 0 1.585-.072 2.306-.216h.072l.65-.144c.143 0 .36-.072.648-.144h.072c.216 0 .216-.072.432-.072.289-.072.505-.144.577-.144 1.37-.505 2.74-1.298 3.893-2.451l.504-.433.36-.504.361-.505c.937-1.946 1.874-4.037 2.163-6.343v-.505c.072-.505.144-.937.144-1.442v-.144c.216-1.658.072-4.253 0-6.271v-.577zm48.369 2.307a7.404 7.404 0 00.072-2.163c0-.288 0-.504-.072-.648-.072-.505-.144-.865-.36-1.37-.217-.505-.505-.649-.793-.865-.217-.072-.36-.144-.505-.144h-1.442c-.144-.072-.36-.072-.648-.072h-1.225c-1.154.216-2.38.072-3.533 0-.288 0-.504 0-.72-.072-1.442-.072-2.956-.072-4.398-.072-.216-.072-.432-.072-.793-.072-1.946-.36-4.109.865-3.676 3.027v.72c.072.145.072.361.072.65.072 1.37-.072 2.739 0 4.108 0 .505.505.721 1.01.938l.576.216c.216 0 .36.072.577.072.144.072.36.072.648.072h4.974c-.288 2.235-.288 4.685-1.802 6.415l-.36.433-.289.432-.432.36-.433.29c-1.946.936-4.253 1.08-6.343.864l-.72-.216c-.794-.216-1.443-.649-2.02-1.298l-.504-.504c-.216-.289-.288-.505-.36-.649-.217-.36-.433-.649-.577-1.01-.216-.72-.432-1.513-.505-2.378 0-.216-.072-.432-.072-.649a12.492 12.492 0 01-.216-2.306c-.072-1.082-.144-1.947-.144-2.884 0-.288-.072-.504-.072-.72 0-.289-.072-.505-.072-.793 0-2.09.288-4.253.072-6.344 0-.216.072-.432.072-.72 0-.938.072-1.803.144-2.884 0-.72.072-1.514.216-2.307 0-.216.072-.432.072-.648.073-.865.289-1.658.505-2.38.144-.36.36-.648.577-1.008.072-.145.144-.36.36-.65l.505-.504c.576-.648 1.225-1.081 2.018-1.297l.72-.217c2.091-.216 4.398-.072 6.344.866l.433.288.432.36c.217.289.433.505.649.865a5.983 5.983 0 011.01 1.874l.143.65c.072.648.217 1.297.433 1.873.072.36.216.577.432.793.289.289.65.289 1.01.36.288 0 .504 0 .576-.071h1.009c.217 0 .505-.072.721-.072h.649c2.018-.217 5.767.937 5.983-2.163v-.505a13.763 13.763 0 00-.433-2.378l-.144-.577c-.216-1.081-.432-2.018-1.009-2.955a11.859 11.859 0 00-.72-1.37c-.361-.865-.938-1.73-1.659-2.595l-.504-.505a16.873 16.873 0 00-2.523-2.09l-.577-.433c-2.018-1.225-4.325-1.585-6.56-2.09h-1.08c-3.245.216-6.56-.216-9.66.937l-.937.36c-1.658.793-3.172 1.514-4.325 2.884l-.577.649c-.504.648-1.009 1.297-1.37 2.09-.504.937-1.009 2.018-1.369 3.244-.649 1.802-.937 3.748-1.153 5.694l-.144 1.37c0 .216-.073.433-.073.649l-.144 1.946c0 .216-.072.433-.072.649-.216 1.802-.216 3.532-.144 5.334v.649c.216 1.946.144 3.748.216 5.694v.65c.072 1.153.144 2.306.36 3.46.217 1.945.505 3.892 1.154 5.694.36 1.225.865 2.307 1.37 3.244.36.793.865 1.441 1.37 2.09l.576.649c1.153 1.37 2.667 2.09 4.325 2.883l.937.36c3.1 1.154 6.415.721 9.66.938h1.08c2.235-.505 4.542-.865 6.56-2.09l.577-.433a16.873 16.873 0 002.523-2.09l.504-.505c.505-.505.793-1.082 1.154-1.658l.36-.649c.793-1.37 1.586-2.667 1.874-4.325 0-.216.072-.505.072-.72l.36-2.235v-.433c.073-.505.145-.865.145-1.37v-.72c0-.217-.072-.36-.072-.577 0-.288 0-.505.072-.577.072-1.37-.288-2.523 0-3.892 0-.217.072-.505.072-.721zm-4.253 7.93c0 .287 0 .504-.072.648v.649c0 .216 0 .36-.072.432 0 .144-.072.36-.144.649 0 .216-.072.432-.144.72-.793 2.235-2.235 4.037-3.893 5.551l-.505.36-.576.361c-1.73 1.081-3.676 1.946-5.767 2.018-.216 0-.36 0-.504.072-.505 0-.866 0-1.37.073h-.577c-.649 0-1.225 0-1.874-.073-.216 0-.432-.072-.649-.072-1.946-.36-3.748-1.08-5.406-2.306l-.649-.505-.504-.432c-1.226-1.226-2.019-2.812-2.595-4.47l-.65-1.946c-.504-1.946-.648-3.964-.864-5.983v-.649c-.216-2.234-.144-4.325-.144-6.415v-.649c0-1.73.072-3.46.072-5.118.072-.144.072-.36.072-.649.072-1.225.144-2.45.36-3.82 0-.216.072-.432.072-.72l.145-.577c.144-1.01.432-2.019.792-3.028l.217-.649c.937-1.802 1.946-3.748 3.748-4.83l.577-.216a13.53 13.53 0 012.162-.865l.577-.216c1.225-.216 2.379-.36 3.46-.36h2.595c.144.072.36.072.649.072 1.658.216 3.244.288 4.901.937l.577.216c.144.072.36.144.649.36 1.946 1.37 3.748 3.028 4.325 5.407l.144.649c.216.648.288 1.297.505 1.946.216.865-1.154 1.225-1.442.36-.216-.576-.288-1.225-.36-1.802-.073-.288-.145-.504-.145-.576-.504-1.947-1.658-3.316-3.315-4.398-.217-.072-.289-.216-.505-.288-2.018-1.225-4.325-1.442-6.632-1.442h-1.802c-1.081 0-1.946 0-3.027.217l-.577.144c-.72.216-1.298.504-1.802.72a1.38 1.38 0 00-.577.289c-1.73.865-2.739 2.523-3.532 4.253-.072.288-.144.505-.144.577-.288.793-.505 1.73-.649 2.81 0 .217-.072.361-.072.578 0 .216-.072.288-.072.504-.216.36-.144.721-.216 1.081 0 .793-.072 1.658-.217 2.523 0 .217-.072.289-.072.505.072 1.802.072 3.604.072 5.334v.721c-.072 2.09-.144 4.18.073 6.271v.649c.072 2.09.36 4.109.865 6.055l.216.577.144.504c.072.289.144.505.144.577.505 1.37 1.154 2.523 2.09 3.604l.433.36.72.577a11.825 11.825 0 005.768 2.235h.648c.217 0 .505.072.721.072.216 0 .36-.072.577-.072.432 0 .72 0 .937-.072h.433c2.018-.144 3.892-.793 5.694-1.874l.505-.36c1.73-1.37 2.883-3.389 3.748-5.335 0-.216.072-.36.072-.577l.144-.648c.217-2.019.36-3.965.072-5.983v-1.803c0-.216.145-.432.073-.648v-.649h-1.731c-.865 0-1.657.072-2.522.072-.865 0-1.73.072-2.595.072h-.577c-.072-.072-.288-.072-.505-.072h-.504c-.505 0-1.01 0-1.01-.505-.072-.504.36-1.153.938-.937.288 0 .504 0 .648.072h1.297c.866 0 1.803-.072 2.74-.072.865 0 1.874-.072 2.74-.072h1.225c.504 0 .793.072 1.009.217.216.216.288.36.288.504.072.216.072.36 0 .505 0 1.874.144 6.343-.072 8.073zm47.143-11.39c.072-2.307.216-4.686 0-7.064l-.144-1.442v-.505l-.144-1.37c-.36-2.09-.36-4.252-1.514-6.198a11.859 11.859 0 00-.721-1.37c-.36-.865-.937-1.73-1.658-2.595l-.504-.505a16.873 16.873 0 00-2.523-2.09l-.577-.433c-2.018-1.225-4.325-1.585-6.56-2.09h-1.081c-3.244.216-6.56-.216-9.66.937l-.936.36c-1.658.793-3.172 1.514-4.325 2.884l-.577.649c-.505.648-1.01 1.297-1.37 2.09-.504.937-1.009 2.018-1.37 3.244-.648 1.802-.936 3.748-1.153 5.694l-.144 1.37c0 .216-.072.433-.072.649l-.144 1.946c0 .216-.072.433-.072.649-.216 1.802-.216 3.532-.144 5.334v.649c.216 1.946.144 3.748.216 5.694v.65c.072 1.153.144 2.306.36 3.46.217 1.945.505 3.892 1.154 5.694.36 1.225.865 2.307 1.37 3.244.36.793.864 1.441 1.369 2.09l.577.649c1.153 1.37 2.667 2.09 4.325 2.883l.937.36c3.1 1.154 6.415.721 9.659.938h1.081c2.235-.505 4.542-.865 6.56-2.09l.577-.433a16.873 16.873 0 002.523-2.09l.504-.505c1.442-1.802 2.379-3.893 3.316-5.983 0-.217.072-.433.072-.649 0-.216.072-.505.072-.72l.36-2.235c0-.289 0-.65.073-.938.216-1.08.216-2.018.288-2.955.216-2.379.072-4.758 0-7.064v-.793zm-10.38 6.055v.432c0 .433 0 .721.072.938l-.144.792c0 .577-.072 1.442-.36 2.019-.217 1.441-.433 2.811-1.37 3.964-.216.36-.433.577-.649.865l-.432.36-.433.29c-1.946.936-4.253 1.08-6.343.864l-.721-.216c-.793-.216-1.442-.649-2.019-1.298l-.504-.504c-.216-.289-.288-.505-.36-.649-.217-.36-.433-.649-.577-1.01-.216-.72-.433-1.513-.505-2.378 0-.216-.072-.432-.072-.649a12.492 12.492 0 01-.216-2.306c-.072-1.082-.144-1.947-.144-2.884 0-.288-.072-.504-.072-.72 0-.289-.072-.505-.072-.793 0-2.09.288-4.253.072-6.344 0-.216.072-.432.072-.72 0-.938.072-1.803.144-2.884 0-.72.072-1.514.216-2.307 0-.216.072-.432.072-.648.072-.865.289-1.658.505-2.38.144-.36.36-.648.576-1.008.073-.145.145-.36.36-.65l.505-.504c.577-.648 1.226-1.081 2.019-1.297l.72-.217c2.091-.216 4.398-.072 6.344.866l.433.288.432.36c.216.289.433.505.649.865.937 1.154 1.153 2.523 1.37 3.965.288.577.36 1.442.36 2.018l.144.793c-.072.577-.072 1.226-.072 1.874v2.884c.072.648.144 1.225.144 2.018v.649c0 1.225-.288 2.45-.216 3.676 0 .216.072.288.072.505v1.08zm6.055 2.162l-.144 1.514c0 .216 0 .433-.072.505-.289 2.523-1.298 4.901-2.235 6.848l-.072.072-.433.577-.432.576-.577.577c-1.297 1.225-2.739 2.162-4.397 2.739h-.072l-.649.144-.432.144c-.216 0-.433.072-.721.145-.216 0-.505.072-.72.072-.794.216-1.659.288-2.596.288-1.514 0-3.1-.216-4.757-.72l-.721-.217h-.072l-.65-.288-1.224-.577c-1.803-.937-3.172-2.595-4.253-4.974l-.433-1.297c-.505-1.37-.649-2.884-.865-4.253-.216-.793-.216-1.658-.288-2.523v-2.38c-.072-1.225-.072-2.594-.144-3.387v-.505c0-1.37.072-6.055.072-7.352 0-.216.072-.289.072-.36v-.145l.144-1.441v-.433l.144-1.01a15.76 15.76 0 01.649-3.603l.216-.721c.072-.216.072-.505.288-.721.072-.144.145-.36.36-.649v-.072c1.082-1.658 2.668-3.964 5.19-5.334h.073l.72-.288c1.73-.65 3.605-.65 5.407-.721h2.811c1.37.288 2.884.504 4.253 1.297l.577.289.072.072c.649.504 1.081.793 1.586 1.297l.504.505c2.019 2.234 3.316 4.757 3.533 7.569 0 .216.072.36.072.576v.072l.144 1.01v.36l.072 1.081c.216 1.73 0 6.92 0 8.578v.577c.072 2.018.072 4.685 0 6.343v.144zm-1.37-7.064c0-1.658.217-6.848 0-8.506l-.072-1.08v-.361l-.072-.937-.144-.65v-.071c-.216-2.523-1.298-4.758-3.1-6.704l-.504-.433c-.36-.36-.865-.793-1.442-1.225l-.432-.216c-1.226-.649-2.595-.937-3.965-1.154h-2.523c-1.73 0-3.316.072-4.974.65l-.648.215c-2.235 1.154-3.677 3.244-4.614 4.758l-.288.649-.216.648-.217.577c-.36 1.153-.432 2.307-.648 3.388l-.073.937v.288c-.072.073-.072.145-.072.145v.072l-.072 1.37c0 .143 0 .216-.072.288v.216c0 1.225-.072 5.91-.072 7.208v.505c.072.865.072 2.234.072 3.388 0 .793.072 1.37.072 1.874v.505l.217 2.45c.216 1.37.36 2.595.865 3.965l.36 1.153c1.081 2.235 2.307 3.677 3.676 4.325.217.217.577.36 1.082.505l.648.288.649.217c1.586.432 3.028.648 4.397.648.793 0 1.586-.072 2.307-.216h.072l.649-.144c.144 0 .36-.072.648-.144h.073c.216 0 .216-.072.432-.072.288-.072.505-.144.577-.144 1.37-.505 2.739-1.298 3.892-2.451l.505-.433.36-.504.36-.505c.938-1.946 1.875-4.037 2.163-6.343v-.505c.072-.505.144-.937.144-1.442v-.144c.217-1.658.072-4.253 0-6.271v-.577zm23.14 3.604c0-2.523.216-4.83.288-7.208.072-.144.072-.36.072-.649 0-.288 0-.504.072-.648 0-.36 0-.65.072-.793v-2.163c0-.288 0-.505.072-.72-.072-.145-.072-.361-.072-.65v-.648l.144-2.307c.072-.072.072-.216.072-.432-.072-2.09-.072-4.253.216-6.344V7.584c.072-.505.072-.937.072-1.442V5.35c0-.288 0-.504-.072-.576.217-.865.072-1.875-.288-2.523-.072-.217-.144-.36-.36-.433a1.112 1.112 0 00-.433-.288c-2.235-.36-4.18-.216-6.415-.144-.217 0-.433.072-.65.072l-.576.144c-2.018.937-1.586 3.46-1.37 5.262v6.848c0 .505 0 .865.073 1.37v1.009c-.072.36-.072.72-.072 1.009.216 2.09.144 4.18.216 6.271v2.667c.072 2.523.144 5.046.144 7.57V36.2c0 .289 0 .505.072.649 0 1.081.577 1.514 1.226 1.874l.576.144c1.514.217 3.028.217 4.541.144.217 0 .433-.072.721-.144 1.514-.576 1.73-2.883 1.658-4.397v-3.244zM510.1 43.193c-.36 0-.649 0-.865.072l-.721.217c-1.802.793-3.028 2.667-2.955 4.613 0 .216.072.433.072.649.216.72.504 1.37.865 1.946l.288.36 1.081.865.505.217.649.216h.72c.505 0 .937.072 1.442-.144.144 0 .36-.072.649-.144 1.081-.36 1.874-.937 2.379-1.73.216-.217.216-.433.432-.65.36-.72.505-1.44.36-2.162 0-.216-.072-.288-.072-.504l-.144-.865c-.36-.649-.72-1.154-1.225-1.586l-.577-.433c-.865-.648-1.802-.937-2.883-.937zm1.009-17.804c.072.865.144 1.585.144 2.378-.072.145-.072.36-.072.65-.216 2.522-.072 4.757 0 7.28 0 .216-.072.36-.216.504-.216.072-.36.144-.505.144-.216 0-.432-.072-.504-.144-.072-.36-.145-.649-.145-.865-.072-.144-.072-.288-.072-.504-.216-1.947.072-3.965 0-5.911v-1.514c0-3.316.072-3.532.072-4.253 0-3.748-.432-6.56-.144-9.37v-1.875c.217-2.09.217-4.18 0-6.2v-.504c0-.937 1.442-.937 1.442 0v1.01a55.573 55.573 0 010 4.901v2.235c-.216 1.73-.288 3.532-.072 5.262.072.504.072.937.072 1.441v2.019c-.072 1.081 0 2.234 0 3.316zm-.577 21.409c.36.288.505.432.505.432.072.072.144.144.144.216v.144l.072.145c-.216.504-.36.72-.577.793-.072.072-.144.072-.216.072-.216.072-.432.072-.72.072l-.073-.072c-.216-.072-.288-.145-.216-.145h-.072l-.216-.432v-.144c.072-.505.288-1.081.793-1.081h.576z" fill="#5D6063" fill-rule="evenodd"/></svg>