<svg width="300" height="300" xmlns="http://www.w3.org/2000/svg"><g fill="none" fill-rule="evenodd"><path fill="#C8C6FA" d="M0 0h300v300H0z"/><path d="M168.34 156.08c-.08-.32-.16-.56-.16-.72l-.16-.56c-.08-.32-.16-.56-.16-.64-.72-1.84-1.28-3.68-2.32-5.28l-.48-.64c-1.36-1.84-3.36-2.96-5.28-4l-.72-.24c-.56-.24-1.12-.4-1.6-.48-.32-.08-.56-.16-.88-.16l-.8-.16c-.24 0-.56-.08-.8-.08-.16-.08-.4-.08-.8-.08l-.72-.16c-.4 0-.64 0-.8-.08h-1.76c-.16-.08-.4-.08-.8-.08h-2.64c-.24 0-.48-.08-.72-.08-.32 0-.64-.08-.88-.08-.32 0-.72.08-.8 0-.24-.24-.08-.64-.08-.96.24-1.84.08-3.36.16-5.2v-1.28c0-.24-.08-1.04-.08-2.08 3.12 0 8-.08 12.72-.08h4.16c.24 0 .4.08.64.08 1.6-.24 4.4.72 4.64-1.6l.16-.8v-.48c.08-1.52-.24-2.88.08-4.4 0-.32.08-.64.08-.88.08-1.2 0-2.08-.96-2.64-1.36-.64-3.2.08-5.04-.16h-.72c-.56 0-.96-.08-1.52-.16h-15.92c-2.48-.32-4.88-.08-7.36 0l-.64.16c-1.84.8-1.36 3.44-1.36 5.12.08.24.08.48.08.88s0 .64-.08.8v1.68c0 1.68-.08 3.36 0 4.88v.56c0 .4 0 .72-.08.88v.56c0 1.92 0 3.76.08 5.68v.72c0 1.68-.24 3.44 0 5.04 0 .32.08.56.08.8.56 1.92 1.92 2.4 3.6 2.48h.88c.72-.08 1.52-.08 2.32 0h4c1.6.24 3.2 0 4.8 0 .24 0 .56.08.8.08 2.48.08 4.72 1.28 6.08 3.28l.4.8.24.72c.64 2.32.56 4.88-.64 7.04-.08.24-.24.48-.32.56-1.36 1.92-3.76 3.12-6.08 3.04h-.88c-2 0-4.08-.56-5.36-2.24-.16-.16-.24-.32-.32-.48a6.64 6.64 0 01-1.12-2.08l-.16-.72c0-.24-.08-.32-.08-.56l-.16-.72c-.08-1.2-.8-1.92-1.76-2.24-.16-.08-.4-.08-.64-.08-2.48.24-4.8-.16-7.28.16l-.56.24c-.88.56-1.36 1.28-1.44 2.32 0 .4 0 .64.08.8l.32 2.48.16.64c.24 1.2.48 2.24 1.12 3.28.24.56.56 1.12.8 1.52.4.96 1.04 1.92 1.84 2.88l.56.56c.88.88 1.84 1.68 2.8 2.32l.64.48c2.24 1.36 4.8 1.76 7.28 2.32h1.2c.72 0 1.44 0 2.16-.08h.72c2.32.08 4.56-.24 6.72-.96.24-.08.56-.08.8-.32.88-.24 1.6-.56 2.24-.96l.64-.4c.72-.4 1.36-.88 2-1.28l.72-.56c.64-.56 1.2-1.12 1.76-2 .16-.16.32-.4.4-.64.56-.64.88-1.36 1.28-2l.32-.72c.4-.88.64-1.44.88-2.32l.16-.8.24-1.12c0-.24.08-.32.08-.56.08-.08.08-.32.08-.64s0-.56.08-.72c0-.24-.08-.32-.08-.56.08-1.92.24-3.92-.08-5.84zm-4.48 6.24c.08 1.28-.4 2.48-1.04 3.52l-.32.72-.4.8-.8 1.2c-1.6 2-3.68 3.36-6 4.4l-1.36.4c-1.52.32-2.8.4-4.32.64h-.72c-.16.08-.4.08-.72.08-2.64-.08-5.28-.88-7.76-2.08l-.64-.48c-.8-.72-1.52-1.52-2.16-2.4l-.48-.64c-1.2-1.84-2-3.76-1.44-5.92.08-.4.8-.48 1.2-.16.24.24.32.48.32.88 0 1.76.56 3.36 1.6 4.72l.48.64c.64.88 1.36 1.6 2.24 2.24l.64.32c1.68.88 3.68 1.04 5.52 1.28.4 0 .64 0 .88-.08 1.36 0 2.56-.08 3.6-.32l1.12-.24c.32-.08.72-.08 1.04-.32 2.32-.64 4.24-2.16 5.92-4l.8-1.36.4-.72.24-.64c1.04-2 .88-4.32.56-6.48 0-.4 0-.64-.08-.88-.16-1.52-.64-2.8-1.52-3.92l-.48-.72c-.88-1.2-1.76-1.92-2.96-2.8-.24-.08-.4-.16-.64-.4l-.64-.4-1.52-.72-.72-.24-.8-.24c-.24 0-.48-.08-.72-.08-2.8-.24-5.52-.24-8.32-.48h-.8l-1.6.16h-.72c-.56 0-.88 0-1.44-.08-1.2-.08-.96-1.76-.88-2.8.08-.08.08-.32.08-.56 0-.24.08-.32 0-.56.08-.08.08-.32.08-.64v-.64c0-.08 0-.24.08-.32 0-1.28 0-2.64.08-4v-.8c.24-2.64.16-5.28.4-7.92v-2c0-.16.08-.32.16-.4 0-.4.24-.64.72-.64h4.8c.88 0 1.52 0 2.4-.08h.8c.72 0 1.52 0 2.24.08h8.4c.4 0 .64 0 .8-.08h2.4c.24 0 .64.08 1.2.16.64.24.8 1.12.24 1.36-.56.08-.96.16-1.2.16-.88.08-1.52.08-2.4.08h-.8c-2.64-.24-5.36-.16-8-.16h-3.12c-.16.08-.4.08-.72.08h-6.32v2.64l-.32 6.08c0 .24-.08.56-.08.88-.08 1.68-.08 3.28-.08 4.96h-.08c.08 1.2-.56 2.88.08 3.28.16.16.4.24.64.24.32.08.56.16.64.16.56 0 1.04-.08 1.6-.08h.8c2.64-.24 5.28.16 7.84.24.24 0 .48.08.8.16.16 0 .4.08.72.16.08 0 .32.08.64.16l.88.24c.88.32 1.6.56 2.32 1.12.16.08.4.16.72.4l.64.48c1.36.88 2.4 2 3.2 3.28.16.24.32.4.4.64.72 1.52 1.52 3.12 1.76 4.72 0 .24.08.48.08.72 0 1.04.16 2.16-.08 3.2v.8z" fill="#5D6063"/></g></svg>