<svg width="301" height="301" xmlns="http://www.w3.org/2000/svg"><g fill="none" fill-rule="evenodd"><path fill="#C3EDFA" d="M.813.457h300v300h-300z"/><path d="M168.42 169.84c.24-4.56 0-8.64 0-13.04v-3.12c.08-.56.08-1.04.08-1.6v-.88c0-.32 0-.56-.08-.64.24-.96.08-2.08-.32-2.8-.08-.24-.16-.4-.4-.48a1.23 1.23 0 00-.48-.32c-2.48-.4-4.64-.24-7.12-.16-.24 0-.48.08-.72.08-.88.24-1.68.56-2.08 1.6 0 .24-.08.48-.08.8-.08.48 0 1.04.16 1.68v2.88c0 .88-.08 1.52-.08 2.24-2.16-.08-4.48-.08-6.64-.08h-.32c-.08.08-.32.08-.64.08-.96.08-2-.16-2.96.08.24-.4.32-.88.56-1.28 0-.08.08-.24.16-.48l.96-2.56.8-1.92.32-.64.24-.64.32-.64.64-1.84.24-.64c.56-1.28.96-2.48 1.52-3.68l.32-.8c.32-1.04.8-2 1.04-3.04.08-.16.24-.4.32-.72.08-.24.08-.56.32-.8l1.76-5.2.64-1.6c.08-.24.08-.32.16-.4l.56-1.44.16-.48.64-1.84.4-.8c.16-.24.32-.48.4-.88.08-.08.08-.24.08-.48-.48-2.24-3.12-1.44-5.12-1.68-.24 0-.4-.08-.64-.08-2.64-.56-5.28.4-6 3.2-.08.24-.24.32-.32.56l-.48 1.28-.16.48c-.08.08-.08.16-.08.24-.64 2.24-3.68 8.96-4.8 12l-.24.64c-.56 1.52-1.12 2.88-1.84 4.4l-.24.72c-.24.24-.08.48-.32.72l-.24.72-.88 2.16c-.24.24-.16.48-.24.72l-.16.32c0 .08 0 .24-.08.4l-.32.88c-.16.16-.24.32-.32.56-1.2 2.32-2.08 4.72-3.04 7.04l-.24.64c-.8 1.36-1.12 2.96-1.04 4.8v.64l.32 1.12.4.48c.72.32 1.28.64 2.16.56.24 0 .32.08.56.08.24 0 .4-.08.64-.08s.48 0 .64.08c1.04 0 2 .08 3.04.08h3.76c1.52.08 2.8 0 4.16-.08.08-.08.32-.08.64-.08h8.56v5.84c0 1.6-.64 3.76.24 4.48l.56.4c.88.32 1.92.4 3.04.32h.8c2.24-.48 5.04 1.12 6.08-.8.64-1.36-.08-3.2.16-5.04v-.72c0-.56.08-.96.16-1.52zm-6.56-13.76c0-1.52-.08-2.96-.16-4.48v-.56c0-1.04 1.6-1.04 1.6 0v1.12c0 1.28.08 2.64 0 3.92 0 2 .08 3.2.08 4.4v1.6c0 1.28-.08 2.88-.08 5.68 0 .88 0 1.6.08 2.24 0 .32 0 .56.08.64 0 .56 0 .96.08 1.36v1.76c0 .48-.24.72-.8.72-.24 0-.48-.08-.56-.16-.24-.64-.24-1.36-.32-2v-2.8c0-.56.08-1.12.08-1.76v-5.44h-.08v-.08c-8.08 0-10-.08-12.16-.08-3.6 0-6.4.24-9.28.16h-1.84c-.16 0-.32-.08-.48-.24-.16-.08-.32-.32-.4-.64 0-.24.08-.56.16-.88 1.2-2 2.24-4 2.88-6.16l.24-.56c.08-.4.16-.72.4-1.12l.24-.72c.56-1.2.96-2.4 1.52-3.6l.24-.56.64-2 .48-1.28c0-.24.08-.4.16-.64l1.2-3.36.24-.64c.64-1.68 1.2-3.36 2.08-4.96l.24-.56.32-.56c.08-.32.24-.56.32-.72l.72-1.84.8-1.92.24-.64.32-.8c.32-.72.56-1.52.96-2.24.24-.4 1.28-.4 1.28 0-.32 3.44-1.92 5.52-2.8 7.76-.08.24-.16.48-.56 1.2-.96 2.56-2.16 5.04-3.04 7.68l-.24.72c-.24.72-.56 1.44-.8 2.32l-.24.64c-.4 1.2-.72 2.16-1.28 3.36l-.24.48-1.04 2.64-.24.64-.4 1.36-.24.72c-.72 1.84-2 3.36-2.24 5.36h.64c2.8.24 5.52.08 8.32.08h.64c.64 0 1.28.08 1.92.08.72 0 .88-.08 1.12-.08h9.28v-4.56h-.08z" fill="#5D6063"/></g></svg>