<svg width="300" height="300" xmlns="http://www.w3.org/2000/svg"><g fill="none" fill-rule="evenodd"><path fill="#F5CF8E" d="M0 0h300v300H0z"/><path d="M144.48 122c-1.84.24-3.36-.48-4.72.16-.96.56-1.04 1.44-.96 2.64 0 .24.08.56.08.88.32 1.52 0 2.88.08 4.4v.48c.08.64.24 1.12.32 1.52l.4.56c.72.88 2.56.24 4.16.24h2.88l.08 5.92v1.52c0 .24 0 .4.08.64-.08.08-.08.16-.08.32v.8c0 .24-.08.48-.08.72-.08 2.32-.24 4.64-.16 6.96v3.68c0 2.32.08 12.48.08 19.2v.56c0 1.6-.64 3.76.24 4.48l.56.4c.88.32 1.92.4 3.04.32h.8c2.24-.48 5.04 1.12 6.08-.8.64-1.36-.08-3.2.16-5.04v-.72c0-.56.08-.96.16-1.52v-17.2c0-2.32.32-4.72.08-7.04 0-.24.08-.48.08-.8 0-1.04.08-2 .16-3.2v-7.04c0-.4-.08-2.96-.08-5.76v-.64c.08-.56.08-1.04.08-1.6v-.88c0-.32 0-.56-.08-.64.24-.96.08-2.08-.32-2.8-.08-.24-.16-.4-.4-.48a1.23 1.23 0 00-.48-.32c-2.48-.4-4.64-.24-7.12-.16l-.08.08h-2.8c-.56.08-.96.16-1.52.16h-.72zm.96 6.24c-.72-.08-1.44-.16-2.16-.16-1.04 0-1.04-1.6 0-1.6h9.52l.08 8h-.08v.56c-.24 1.92-.32 3.92-.08 5.84.08.56.08 1.04.08 1.6v16.4c-.08 1.28-.08 2.64-.08 3.92v.8c.4 2.32-.32 4.56-.08 6.88 0 .32 0 .56.08.64 0 .56 0 .96.08 1.36v1.76c0 .48-.24.72-.8.72-.24 0-.48-.08-.56-.16-.24-.64-.24-1.36-.32-2V170c.24-1.68 0-3.28.08-4.96v-3.52c.08-.08.08-.32.08-.56v-.64c0-1.04 0-2-.08-3.04 0-.32 0-.56.08-.8.24-5.04.24-9.92-.08-14.72v-1.04c-.08-1.84-.24-3.36 0-5.2v-7.44c-5.12 0-5.52.16-5.76.16z" fill="#5D6063"/></g></svg>