<svg width="115" height="34" xmlns="http://www.w3.org/2000/svg"><g fill="#5995DA" fill-rule="evenodd"><path d="M16.73-.012C7.655-.012.297 7.346.297 16.421c0 9.077 7.358 16.433 16.433 16.433 9.076 0 16.433-7.356 16.433-16.433 0-9.075-7.357-16.433-16.433-16.433zm3.52 16.44h-2.303v8.21h-3.412v-8.21h-1.623v-2.9h1.623V11.65c0-1.344.638-3.444 3.443-3.444l2.528.01v2.815h-1.834c-.299 0-.724.149-.724.79v1.705h2.602l-.3 2.902zM58.721-.012c-9.075 0-16.432 7.358-16.432 16.433 0 9.077 7.357 16.433 16.432 16.433 9.076 0 16.433-7.356 16.433-16.433 0-9.075-7.357-16.433-16.433-16.433zm6.535 13.083c.007.144.01.29.01.435 0 4.456-3.391 9.593-9.593 9.593a9.542 9.542 0 01-5.168-1.514c.265.03.533.046.804.046 1.58 0 3.033-.537 4.186-1.442a3.376 3.376 0 01-3.148-2.34 3.385 3.385 0 001.521-.058 3.376 3.376 0 01-2.704-3.306v-.042c.455.252.975.403 1.528.421a3.37 3.37 0 01-1.043-4.5 9.57 9.57 0 006.948 3.522 3.37 3.37 0 013.285-4.139c.97 0 1.845.409 2.46 1.063a6.729 6.729 0 002.141-.818 3.384 3.384 0 01-1.482 1.865 6.74 6.74 0 001.936-.53 6.829 6.829 0 01-1.681 1.744z"/><g transform="translate(81.781 -.497)"><ellipse cx="16.799" cy="17.091" rx="3.291" ry="3.189"/><path d="M21.893 17.27c0 2.724-2.281 4.934-5.094 4.934-2.812 0-5.093-2.21-5.093-4.934 0-.49.075-.96.21-1.406h-1.503v6.92c0 .36.293.65.65.65h11.41a.65.65 0 00.65-.65v-6.92h-1.441c.137.445.21.916.21 1.406zm-1.366-3.275h1.852a.74.74 0 00.737-.738v-1.765a.74.74 0 00-.737-.738h-1.852a.74.74 0 00-.738.738v1.765a.74.74 0 00.738.738z"/><path d="M16.784.693C7.708.693.35 8.051.35 17.126c0 9.077 7.357 16.432 16.433 16.432 9.075 0 16.432-7.355 16.432-16.432C33.216 8.05 25.858.693 16.784.693zm8.191 22.523a2.108 2.108 0 01-2.102 2.101H10.696a2.109 2.109 0 01-2.104-2.101V11.038c0-1.158.946-2.103 2.104-2.103h12.177a2.11 2.11 0 012.102 2.103v12.178z"/></g></g></svg>