<svg width="300" height="300" xmlns="http://www.w3.org/2000/svg"><g fill="none" fill-rule="evenodd"><path fill="#B2D6FF" d="M0 0h300v300H0z"/><path d="M168.22 157.76c0-.08-.08-.32-.16-.64-.08-.4-.16-.8-.4-1.28l-.32-.64c-.56-1.12-1.28-2.08-2.08-2.96l-.48-.56c-.72-.88-1.76-1.12-2.72-1.68.72-.48 1.44-.96 2-1.52l.48-.4.4-.48.48-.48c.72-.88 1.44-1.84 1.84-2.88.08-.16.24-.4.32-.72.4-1.2.64-2.4.88-3.6v-.72c0-.64 0-1.36.08-2 0-.32-.08-.56-.08-.8-.08-1.52-.4-2.72-.96-4l-.4-1.28c-.24-.72-.64-1.52-1.12-2.32l-.24-.4-.24-.4a13.332 13.332 0 00-4.48-4.48l-.64-.32-1.36-.64-1.04-.4c-2.8-1.04-5.52-.96-8.4-.96h-.8c-2.48-.08-4.88.4-7.2.96l-.72.24c-.72.32-1.44.64-2.08 1.04l-.64.48c-.96.64-1.92 1.44-2.8 2.32l-.56.56c-.8.96-1.44 1.92-1.84 2.88-.24.4-.56.96-.8 1.52-.64 1.04-.88 2.08-1.12 3.28l-.16.64-.32 2.48c-.08.16-.08.4-.08.8 0 .24 0 .48.08.64l.24.48c.96 1.68 3.12 1.52 4.72 1.44h3.68c.08-.08.24-.08.48-.08s.32 0 .4-.08c.64 0 1.2-.24 1.6-.8.08-.24.24-.48.32-.8.24-.56.32-1.12.4-1.68l.16-.72c.24-.72.56-1.36 1.12-2.08.24-.4.48-.64.72-.96l.48-.4.48-.32c2.16-1.04 4.72-1.2 7.04-.96l.8.24c.88.24 1.6.72 2.24 1.44l.56.56c.24.32.32.56.4.72.08.16.24.32.32.56.24.4.4.8.48 1.36.08.08.08.24.08.48.32 2.56-.56 5.44-2.88 6.8l-.64.4c-.64.32-1.28.56-2 .72-.24 0-.32.08-.56.08-.56.24-.88.16-1.44.24h-.48c-1.68.4-3.68-.72-5.12.56a.82.82 0 00-.4.48c-.08.24-.16.4-.16.72v1.68c.08.88 0 1.84 0 2.72v.64c0 .4 0 .64.08.72.8 2.24 3.68 1.2 5.6 1.6.24 0 .48 0 .56-.08.56 0 .96-.08 1.52.16h.72c.88.24 1.76.4 2.64.96l.56.48c.8.64 1.36 1.52 1.6 2.56.08.24.16.4.16.64.16.48.24.96.24 1.44 0 .24 0 .4.08.56 0 .4 0 .64-.08.88 0 .24 0 .4-.08.48 0 .56-.32.88-.56 1.28-.08.24-.24.48-.32.56-.64 1.04-1.36 1.92-2.56 2.48l-.56.24-.8.24c-.56.08-.88.08-1.44.08h-.72c-2.24.24-4.72-.32-6.24-2.24-.16-.16-.24-.32-.32-.48a6.64 6.64 0 01-1.12-2.08l-.16-.72c0-.24-.08-.32-.08-.56l-.16-.72c-.08-1.2-.8-1.92-1.76-2.24-.16-.08-.4-.08-.64-.08-2.48.24-4.8-.16-7.28.16l-.56.24c-.88.56-1.36 1.28-1.44 2.32 0 .4 0 .64.08.8l.32 2.48.16.64c.24 1.2.48 2.24 1.12 3.28.24.56.56 1.12.8 1.52.4.96 1.04 1.92 1.84 2.88l.56.56c.88.88 1.84 1.68 2.8 2.32l.64.48c2.24 1.36 4.8 1.76 7.28 2.32h1.2c3.6-.24 7.28.24 10.72-1.04l1.04-.4c1.84-.88 3.52-1.68 4.8-3.2l.64-.72.24-.4c1.68-1.84 2.64-4.16 3.2-6.48l.16-.8c.24-.72.32-1.36.4-2.24 0-.24.08-.48.08-.8 0-.24-.08-.4-.08-.64 0-1.36.08-2.8-.24-4.16zm-4.8 3.2c0 .24 0 .48-.08.64 0 .24 0 .48-.08.64 0 .32 0 .56-.08.8-.08 1.04-.32 1.92-.56 2.72l-.16.56c-.24.88-.64 1.6-1.04 2.16-.24.24-.16.4-.4.64-.96 1.28-2.24 2.24-3.6 2.96l-.72.4-.56.24c-.24.24-.32.24-.56.32-2.48.96-5.04 1.2-7.68.96-.16-.08-.4-.08-.64-.08-.24-.08-.64-.16-1.2-.4-.16 0-.4-.08-.72-.16-.96-.24-1.84-.48-2.72-1.04l-.64-.32c-1.36-.88-2.64-1.76-3.68-2.96-.72-.88-1.36-1.76-1.76-2.8-.56-1.04-.8-2.16-1.2-3.2-.24-.4.16-.88.56-.96.56-.16.88 0 1.04.56.4 1.2.72 2.16 1.28 3.36.88 1.92 2.56 3.36 4.48 4.56l.4.24.48.24 1.04.48c.24.08.4.16.48.16.4.24.8.24 1.12.32.32.08.48.16.56.16l1.36.24c.24 0 .4 0 .48.08 1.92.08 3.84.16 5.68-.56l.64-.24c.72-.24 1.28-.56 1.84-.96.24-.24.4-.32.64-.4.96-.72 1.84-1.52 2.48-2.56l.4-.64c.32-.64.64-1.28.88-2l.16-.56.24-1.04c0-.24.08-.4.08-.64.08-.72.08-1.36.08-2.24-.08-.16-.08-.4-.08-.72l-.16-.64c-.24-.88-.32-1.6-.72-2.48l-.24-.56-.32-.56-.32-.56-.48-.56-1.12-1.04c-.24-.08-.4-.16-.64-.4-1.92-1.52-4.32-1.92-6.8-2.16-.16-.08-.4-.08-.72-.08-.32 0-.72-.08-1.04-.08h-.56c-.88-.08-1.76.32-2.4-.4-.32-.4-.32-.72.08-.96.64-.4 1.36-.08 2.08-.16h1.2c.24 0 .4 0 .48-.08 2.32-.4 4.4-1.28 6.4-2.48l.56-.24.56-.32c2.56-1.52 4.08-4 4.64-6.8l.16-.72c.24-1.28.16-2.64-.16-3.84 0-.16-.08-.4-.16-.72-.32-.96-.72-1.92-1.28-2.8-.08-.24-.24-.32-.32-.56-.56-.72-1.04-1.44-1.92-2l-.56-.4c-.88-.56-1.76-.88-2.64-1.2-.08 0-.32-.08-.64-.16-.96-.24-1.84-.32-2.8-.4-.16-.08-.4-.08-.72-.08-2.16-.08-4.16.48-6.32 1.04l-.64.24c-.72.24-1.36.56-1.92.96-.24.08-.4.16-.64.4-.24.24-.4.32-.56.4-1.52 1.52-3.28 3.04-3.6 5.2 0 .24-.08.32-.08.56-.16.56-.24 1.12-.24 1.6 0 1.04-1.6 1.04-1.6 0 0-.72.16-1.52.4-2.32 0-.08.08-.32.16-.64.64-2.32 2.4-4.24 4.32-5.76l.56-.48c1.04-.72 2.32-1.36 3.76-1.84.24-.08.4-.16.64-.16 2.24-.72 4.72-.88 7.04-.64.24 0 .24.08.48.08.24.08.48.08.8.08.16.08.4.08.72.08l.64.16c.88.24 1.68.56 2.24.8l.72.4c1.84 1.04 3.2 2.4 4.24 4.24.24.24.24.32.32.56.56 1.28.96 2.56 1.12 3.84.08.16.08.4.08.72.24 1.84-.16 3.44-.56 5.12l-.24.64c-.56 2-1.92 3.52-3.52 4.8l-.4.32-1.2.88-.48.24-1.28.72c-.16.08-.4.24-.72.32-.64.32-1.36.56-2.08.72 1.44.24 2.8.72 4.16 1.36l.56.32c.56.32.96.56 1.52 1.12l.56.4.56.48.24.4.32.4.48.64.48.64c.08.24.16.32.16.4.56 1.52 1.04 2.88 1.12 4.4v.64z" fill="#5D6063"/></g></svg>