<svg width="300" height="300" xmlns="http://www.w3.org/2000/svg"><g fill="none" fill-rule="evenodd"><path fill="#F09A9D" d="M0 0h300v300H0z"/><path d="M166.38 167.04h-.8c-2.32.24-4.64 0-6.96-.08H143.9l.72-1.04c2.16-3.12 5.76-4.64 8.88-6.8.24-.24.56-.4.88-.64l.8-.64c.32-.24.64-.4.88-.64.56-.4 1.12-.72 1.68-1.28l.96-.72c1.52-1.2 2.96-2.56 4.16-4.16l.88-.96c1.28-1.52 2.32-3.12 3.04-4.64l.48-1.04c1.28-3.44 1.68-7.28.64-10.8l-.32-1.28-.48-1.2c-.24-.4-.32-.8-.56-1.2l-.56-1.12c-.4-.88-.96-1.6-1.52-2.32l-.64-.72c-1.28-1.52-2.96-2.32-4.8-3.2l-1.04-.4c-2.16-.88-4.56-.96-6.8-.96h-1.04c-1.52-.24-2.8-.16-4.32.08-.24 0-.64.08-1.04.16-.72.08-1.36.16-2 .4l-.88.32c-1.52.56-2.96 1.28-4.16 2.16l-.96.72-.96.88-.88.96c-1.92 2.48-3.52 5.36-4.08 8.48l-.16 1.04c-.24.88-.4 1.68.16 2.56 1.36 2 3.84 1.6 5.84 2 .4 0 .8.08 1.2 0 1.68 0 3.12-.32 4-1.84l.56-1.92c.4-1.28.96-2.48 1.92-3.44l.48-.4.48-.32c2.16-1.04 4.72-1.2 7.04-.96l.8.24c.88.24 1.6.72 2.24 1.44l.56.56c.24.32.32.56.4.72.08.16.24.32.32.56.4.72.56 1.52.56 2.4.08.24 0 .64-.08 1.2-.24 1.2-.72 2.08-1.28 2.96l-.64.88c-.64.88-1.36 1.68-2.24 2.4l-.8.72c-.88.88-1.76 1.52-2.64 2.24l-.96.72c-.8.72-1.76 1.44-2.8 2.16l-.96.72c-3.12 2.32-6.4 4.24-8.96 7.2l-.48.56-.72.96c-2 2.56-3.04 5.6-3.6 8.8l-.16 1.2c0 .4-.08.8-.08 1.2-.88 3.2 0 6.96 4.08 6.32.4 0 .8-.08 1.2-.08 1.28-.08 2.48-.32 3.68-.08h3.68c.72.08 1.44.08 2.32.08h3.52c3.84-.08 7.6.16 11.36.24h.96c1.28.08 2.56.08 3.6-.24.88.08 1.52 0 1.92-.4l.4-.56c.4-1.84.32-3.84.32-5.68-.08-.56.08-1.12.16-1.68v-.8c0-.8-.32-1.36-.96-1.76l-.72-.24zm-3.28 6.48c-9.04 0-18-.16-27.04-.16-.56 0-.8-.24-.8-.8v-.16c-.08-2.32.48-4.48 1.52-6.56 1.04-1.92 2.4-3.52 3.92-5.04.88-.88 1.68-1.44 2.56-2.08.24-.24.56-.4.88-.64 1.84-1.04 3.2-2.4 4.88-3.68 2.16-1.52 4.16-2.64 6-4.48l.96-.88c1.6-1.6 2.96-3.28 4.16-5.2l.56-1.04c.24-.4.32-.8.4-1.04.24-.4.32-.8.4-1.04l.24-1.28c.56-3.76-.72-8-3.92-10.24l-1.2-.64c-.4-.24-.8-.4-1.12-.48-2.16-.72-4.4-.8-6.56-.8-.72 0-1.44.08-2.16.08-3.44.88-6.64 2.8-8.56 5.6l-.64 1.2c-.4.88-.56 1.6-.56 2.24 0 1.04-1.6 1.04-1.6 0 0-.72.16-1.36.4-2.08.24-.72.56-1.36.88-2 2.16-3.52 5.84-5.92 9.92-6.56.4 0 .72-.08 1.28-.08 3.44.08 7.2.08 10.32 1.92.24.08.64.32 1.04.64 3.12 2.56 4.4 6.64 4.08 10.56l-.16 1.12-.24 1.12c-.08.24-.16.64-.4 1.2-.08.32-.24.72-.48 1.12l-.56 1.12c-1.28 2.48-2.96 4.4-4.88 6.24l-.8.8-1.84 1.52c-3.12 1.92-5.6 4.08-8.48 6.08l-.96.64c-.88.56-1.68 1.28-2.56 2-2.8 2.64-5.12 6.08-5.12 10 8.72 0 17.52.16 26.24.16 1.04 0 1.04 1.6 0 1.6z" fill="#5D6063"/></g></svg>